<svg width="80" height="56" viewBox="0 0 80 56" fill="none" xmlns="http://www.w3.org/2000/svg">
<path d="M40 50C53.2548 50 64 46.89 64 43.0535C64 41.8386 63.0151 40.8538 61.8003 40.8538H18.1997C16.9849 40.8538 16 41.8386 16 43.0535C16 46.89 26.7452 50 40 50Z" fill="url(#paint0_linear)"/>
<ellipse cx="39.9868" cy="42.1672" rx="23.9818" ry="6.94652" fill="url(#paint1_linear)"/>
<path d="M39.9866 14.6794C28.3257 14.6794 18.8727 23.6302 18.8727 34.6715V35.903V42.4968C22.9257 44.6699 30.8609 46.1464 39.9867 46.1464C49.1123 46.1464 57.0474 44.67 61.1004 42.4968V35.9029V34.6715C61.1004 23.6302 51.6475 14.6794 39.9866 14.6794Z" fill="url(#paint2_linear)"/>
<path d="M39.9866 14.6794C28.3257 14.6794 18.8727 23.6302 18.8727 34.6715V35.903V42.4968C22.9257 44.6699 30.8609 46.1464 39.9867 46.1464C49.1123 46.1464 57.0474 44.67 61.1004 42.4968V35.9029V34.6715C61.1004 23.6302 51.6475 14.6794 39.9866 14.6794Z" fill="url(#paint3_linear)"/>
<path d="M26.6909 44.9857C40.2173 43.4585 50.7049 32.559 50.7049 19.3401C50.7049 18.6917 50.6797 18.0489 50.6301 17.4125C47.5007 15.6753 43.8568 14.6794 39.9672 14.6794C28.3063 14.6794 18.8533 23.6302 18.8533 34.6715V42.4968C20.7258 43.5007 23.4268 44.356 26.6909 44.9857Z" fill="url(#paint4_linear)" fill-opacity="0.4"/>
<path d="M47.9467 9.32464C47.8351 9.0575 48.1417 8.80759 48.4055 8.94964C49.3372 9.45131 50.7049 10.4837 50.7049 12.221C50.7049 14.8556 47.3534 15.104 47.3534 17.0555C47.3534 18.057 47.4934 18.7486 47.6298 19.1846C47.7087 19.4368 47.4362 19.659 47.1851 19.5466C46.3501 19.1725 45.0657 18.2598 45.0657 16.184C45.0657 13.1083 48.3894 13.154 48.3894 11.4724C48.3894 10.5942 48.163 9.84248 47.9467 9.32464V9.32464Z" fill="url(#paint5_linear)"/>
<path d="M30.5545 9.95057C30.455 9.7302 30.6635 9.52397 30.8664 9.64115C31.5833 10.0551 32.6552 10.907 32.7699 12.3405C32.9438 14.5145 30.5005 14.7195 30.6293 16.3298C30.6954 17.1562 30.8439 17.7268 30.9727 18.0867C31.0473 18.2948 30.862 18.4782 30.6703 18.3854C30.0328 18.0768 29.0299 17.3236 28.8929 15.6107C28.6899 13.0728 31.1321 13.1105 31.0211 11.7228C30.9632 10.9981 30.7474 10.3778 30.5545 9.95057V9.95057Z" fill="url(#paint6_linear)"/>
<path d="M24.7879 35.9666C24.6307 35.6376 24.2217 35.4915 23.8744 35.6402C23.5269 35.789 23.3726 36.1763 23.5296 36.5051C23.6868 36.8341 24.0958 36.9802 24.4431 36.8316C24.7906 36.683 24.9449 36.2957 24.7879 35.9666V35.9666Z" fill="#EFE9F3"/>
<path d="M23.6214 37.8257C23.3472 37.9431 23.2253 38.2489 23.3493 38.5086C23.4733 38.7682 23.7963 38.8836 24.0705 38.7662C24.3448 38.6488 24.4666 38.343 24.3426 38.0833C24.2184 37.8235 23.8957 37.7083 23.6214 37.8257Z" fill="#EFE9F3"/>
<path d="M26.2355 39.0233C26.0702 39.0941 25.9967 39.2785 26.0714 39.4349C26.1462 39.5914 26.3409 39.661 26.5061 39.5903C26.6715 39.5196 26.7449 39.3351 26.6702 39.1787C26.5955 39.022 26.401 38.9525 26.2355 39.0233Z" fill="#EFE9F3"/>
<path d="M29.836 36.02C29.5942 36.2993 29.6374 36.7113 29.9323 36.9399C30.2273 37.1689 30.6623 37.128 30.9038 36.8487C31.1456 36.5695 31.1024 36.1575 30.8075 35.9288C30.5126 35.6999 30.0776 35.7407 29.836 36.02Z" fill="#EFE9F3"/>
<path d="M28.1708 30.5004C27.9799 30.7208 28.014 31.046 28.2468 31.2265C28.4796 31.4073 28.8231 31.3749 29.0138 31.1547C29.2047 30.9342 29.1706 30.609 28.9378 30.4283C28.7049 30.2476 28.3615 30.2799 28.1708 30.5004Z" fill="#EFE9F3"/>
<path d="M26.8123 36.8646C26.6938 37.1066 26.8048 37.3937 27.0603 37.5062C27.3159 37.6184 27.6191 37.5133 27.7379 37.2713C27.8564 37.0293 27.7454 36.7422 27.4899 36.6297C27.2342 36.5177 26.9309 36.6227 26.8123 36.8646Z" fill="#EFE9F3"/>
<path d="M26.0353 35.6117C25.9416 35.8027 26.0293 36.0296 26.2311 36.1182C26.4329 36.2069 26.6725 36.1238 26.7661 35.9328C26.8597 35.7417 26.772 35.5149 26.5702 35.4262C26.3684 35.3377 26.1289 35.4206 26.0353 35.6117Z" fill="#EFE9F3"/>
<path d="M31.0059 25.1988C30.8487 24.8698 30.4397 24.7237 30.0924 24.8724C29.7449 25.0212 29.5906 25.4084 29.7476 25.7373C29.9047 26.0663 30.3138 26.2124 30.6611 26.0637C31.0085 25.9149 31.1628 25.5277 31.0059 25.1988Z" fill="#EFE9F3"/>
<path d="M33.6574 31.1418C33.3831 31.2593 33.2613 31.565 33.3853 31.8247C33.5093 32.0844 33.8322 32.1998 34.1065 32.0824C34.3807 31.9649 34.5026 31.6592 34.3786 31.3995C34.2545 31.1398 33.9316 31.0244 33.6574 31.1418Z" fill="#EFE9F3"/>
<path d="M33.2672 22.4456C33.0345 22.2648 32.691 22.2972 32.5002 22.5177C32.3095 22.7382 32.3435 23.0634 32.5763 23.2439C32.809 23.4246 33.1525 23.3923 33.3433 23.172C33.5341 22.9515 33.5 22.6263 33.2672 22.4456Z" fill="#EFE9F3"/>
<path d="M37.0103 12.6519H42.963V15.0514L42.9247 15.0682C41.0382 15.8925 38.8921 15.8864 37.0103 15.0514V15.0514V12.6519Z" fill="url(#paint7_linear)"/>
<path d="M45.2238 10.5512C45.2238 12.01 42.8766 13.1925 39.9812 13.1925C37.0858 13.1925 34.7386 12.01 34.7386 10.5512C34.7386 9.09238 35.2158 8.38403 39.9812 8.38403C44.7467 8.38403 45.2238 9.09238 45.2238 10.5512Z" fill="url(#paint8_linear)"/>
<ellipse cx="39.9814" cy="9.59136" rx="4.92258" ry="1.59331" fill="url(#paint9_linear)"/>
<ellipse cx="39.9814" cy="9.59136" rx="4.92258" ry="1.59331" fill="url(#paint10_linear)"/>
<defs>
<linearGradient id="paint0_linear" x1="12" y1="44.0565" x2="45.5912" y2="68.6509" gradientUnits="userSpaceOnUse">
<stop offset="0.333333" stop-color="#FFD945"/>
<stop offset="1" stop-color="#FF9300"/>
</linearGradient>
<linearGradient id="paint1_linear" x1="8.25901" y1="37.9818" x2="51.4298" y2="62.5672" gradientUnits="userSpaceOnUse">
<stop stop-color="#FFD945"/>
<stop offset="0.208829" stop-color="#FFCD3E"/>
<stop offset="0.8558" stop-color="#FFAD2B"/>
<stop offset="1" stop-color="#FFA325"/>
</linearGradient>
<linearGradient id="paint2_linear" x1="33.2576" y1="25.5603" x2="59.274" y2="36.3538" gradientUnits="userSpaceOnUse">
<stop stop-color="#F2EDF5"/>
<stop offset="1" stop-color="#E3D8EB"/>
</linearGradient>
<linearGradient id="paint3_linear" x1="38.5995" y1="15.2404" x2="56.9933" y2="39.1943" gradientUnits="userSpaceOnUse">
<stop stop-color="#F2F0F5"/>
<stop offset="1" stop-color="#E4DAEB"/>
</linearGradient>
<linearGradient id="paint4_linear" x1="19.3918" y1="19.131" x2="34.5192" y2="10.3406" gradientUnits="userSpaceOnUse">
<stop stop-color="white"/>
<stop offset="1" stop-color="white" stop-opacity="0.5"/>
</linearGradient>
<linearGradient id="paint5_linear" x1="49.4065" y1="6.8514" x2="53.1376" y2="10.6645" gradientUnits="userSpaceOnUse">
<stop stop-color="#F2F0F5"/>
<stop offset="1" stop-color="#E4DAEB" stop-opacity="0"/>
</linearGradient>
<linearGradient id="paint6_linear" x1="31.8812" y1="7.90977" x2="34.924" y2="10.5144" gradientUnits="userSpaceOnUse">
<stop stop-color="#F2F0F5"/>
<stop offset="1" stop-color="#E4DAEB" stop-opacity="0"/>
</linearGradient>
<linearGradient id="paint7_linear" x1="38.0692" y1="19.2147" x2="39.1276" y2="12.9387" gradientUnits="userSpaceOnUse">
<stop stop-color="#FFD945"/>
<stop offset="0.3043" stop-color="#FFCD3E"/>
<stop offset="0.781262" stop-color="#FFAD2B"/>
<stop offset="1" stop-color="#FF9300"/>
</linearGradient>
<linearGradient id="paint8_linear" x1="27.6981" y1="5.23459" x2="40.8945" y2="11.5672" gradientUnits="userSpaceOnUse">
<stop stop-color="#FFD945"/>
<stop offset="0.3043" stop-color="#FFCD3E"/>
<stop offset="0.8558" stop-color="#FFAD2B"/>
<stop offset="1" stop-color="#FFA325"/>
</linearGradient>
<linearGradient id="paint9_linear" x1="39.2345" y1="8.26461" x2="40.4901" y2="11.4102" gradientUnits="userSpaceOnUse">
<stop stop-color="#FFC226"/>
<stop offset="1" stop-color="#FFB64A"/>
</linearGradient>
<linearGradient id="paint10_linear" x1="33.1255" y1="7.10499" x2="42.4367" y2="14.5372" gradientUnits="userSpaceOnUse">
<stop stop-color="#FFD945"/>
<stop offset="0.3043" stop-color="#FFCD3E"/>
<stop offset="0.8558" stop-color="#FFAD2B"/>
<stop offset="1" stop-color="#FFA325"/>
</linearGradient>
</defs>
</svg>
