<svg width="80" height="56" viewBox="0 0 80 56" fill="none" xmlns="http://www.w3.org/2000/svg">
<path d="M28.5844 17.0377L29.9288 10.2678L33.6561 12.6563L43.8964 13.1298L48.2174 12.1532L50.7923 10.1111L52.2071 20.3506C50.6547 20.6547 47.521 21.2245 47.4058 21.0709C47.2905 20.9172 34.8102 18.3181 28.5844 17.0377Z" fill="url(#paint0_linear)"/>
<path d="M33.2416 14.637C31.129 14.637 29.6405 15.5972 29.1604 16.0774L28.0561 20.9748L38.8112 23.8076L52.4471 25.5361V21.839L52.0149 19.4383L48.9421 19.8224C42.7483 20.4466 39.4353 14.637 33.2416 14.637Z" fill="url(#paint1_linear)"/>
<path d="M29.0572 16.4306C29.0169 16.4331 28.979 16.4365 28.9436 16.4405C29.0072 16.3596 29.0612 16.3271 29.0572 16.4306C30.1477 16.3611 33.0287 16.8395 36.7699 19.3213C41.6193 22.5382 45.5564 22.2021 49.4935 20.6177L52.3263 19.4653C52.8065 21.5939 52.8063 27.427 50.6879 29.7617C46.7865 34.0615 42.3395 34.3976 39.5547 34.0615C36.7699 33.7254 30 30.8926 29.4718 29.2601C28.9436 27.6277 26.9751 21.722 28.2234 18.7451C28.8616 17.2233 29.0502 16.6138 29.0572 16.4306Z" fill="url(#paint2_linear)"/>
<path opacity="0.6" d="M35.9531 26.8035C31.0538 28.0632 29.1807 22.3791 29.6241 16.6002C29.8001 16.3761 29.2221 16.3638 28.2234 18.7452C26.975 21.7221 28.9436 27.6278 29.4717 29.2602C29.9999 30.8927 36.7698 33.7255 39.5546 34.0616C42.3394 34.3977 48.2318 32.2117 51.1126 29.523C53.4172 27.372 52.8064 21.594 52.3263 19.4654L49.9452 23.2421C45.979 28.1935 43.1313 24.9579 35.9531 26.8035Z" fill="url(#paint3_linear)"/>
<path opacity="0.5" d="M36.7703 19.3213C32.8908 16.7478 29.9364 16.3284 28.9441 16.4405C30.5559 16.4405 33.4481 17.8595 34.561 18.6805C36.4616 19.9707 40.3006 23.2668 44.0321 23.2668C47.7636 23.2668 51.1167 20.6075 52.3268 19.4653L49.494 20.6177C45.5568 22.2021 41.6197 22.5382 36.7703 19.3213Z" fill="#A21E3A"/>
<path d="M49.9506 49.7831C49.9506 51.5598 45.6513 53.0001 40.3478 53.0001C35.0444 53.0001 30.7451 51.5598 30.7451 49.7831C30.7451 48.0065 30.7451 45.894 40.3478 45.1738C49.9506 45.798 49.9506 48.0065 49.9506 49.7831Z" fill="url(#paint4_linear)"/>
<ellipse cx="40.3002" cy="48.3907" rx="9.41069" ry="3.21692" fill="url(#paint5_linear)"/>
<path d="M29.1606 9.87524C28.4404 13.5243 27 21.5522 27 24.4714C27 28.1205 28.7285 32.2496 33.3858 34.2662C34.1956 34.6168 34.8994 34.9007 35.5096 35.1468C38.0105 36.1554 38.9394 36.5301 39.1475 38.2686V43.8621C39.1341 45.6683 38.018 46.4242 37.1791 46.9923C36.6896 47.3238 36.2945 47.5914 36.2682 47.9665C36.2671 47.9797 36.2665 47.9931 36.2665 48.0064C36.2665 48.7754 38.0722 49.3988 40.2997 49.3988C42.5271 49.3988 44.3328 48.7754 44.3328 48.0064C44.3328 47.3757 43.118 46.8429 41.4521 46.6717V38.2116C41.4521 35.6334 42.2386 36.3162 45.1381 35.1468C45.7483 34.9007 46.4521 34.6168 47.2618 34.2662C51.9191 32.2496 53.6476 28.1205 53.6476 24.4714C53.6476 21.5522 52.2072 13.5243 51.487 9.87524L49.9026 11.9878C50.3187 14.3085 51.2181 19.3724 51.487 21.0624C51.7559 22.7525 51.7911 24.0393 51.7751 24.4714C51.8519 31.3086 44.9251 33.562 41.4521 33.8341H39.1955C35.7225 33.562 28.7957 31.3086 28.8725 24.4714C28.8565 24.0393 28.8917 22.7525 29.1606 21.0624C29.4295 19.3724 30.329 14.3085 30.7451 11.9878L29.1606 9.87524Z" fill="url(#paint6_linear)"/>
<path d="M50.8856 9.97137C50.8856 10.2514 50.7267 10.6082 50.2358 11.0184C49.7485 11.4257 49.0045 11.8216 48.028 12.1667C46.0809 12.8549 43.3486 13.2927 40.2995 13.2927C37.2505 13.2927 34.5181 12.8549 32.571 12.1667C31.5946 11.8216 30.8506 11.4257 30.3632 11.0184C29.8723 10.6082 29.7134 10.2514 29.7134 9.97137C29.7134 9.69138 29.8723 9.33454 30.3632 8.92431C30.8506 8.51708 31.5946 8.12116 32.571 7.77603C34.5181 7.08785 37.2505 6.65 40.2995 6.65C43.3486 6.65 46.0809 7.08785 48.028 7.77603C49.0045 8.12116 49.7485 8.51708 50.2358 8.92431C50.7267 9.33454 50.8856 9.69138 50.8856 9.97137Z" stroke="url(#paint7_linear)" stroke-width="1.3"/>
<path d="M40.3001 39.3081C40.3001 35.8435 42.3359 35.9805 43.4062 35.7227C41.8945 36.6328 41.3774 38.3937 41.4524 39.3081V44.1675C41.4524 45.8823 42.577 46.596 43.4209 47.1316C43.9277 47.4532 44.3332 47.7106 44.3332 48.082C44.3332 48.5308 43.633 48.9267 42.5667 49.1615C41.3387 49.4319 40.3001 48.4286 40.3001 47.2464V39.3081Z" fill="#E2D3EB"/>
<defs>
<linearGradient id="paint0_linear" x1="40.3958" y1="9.26909" x2="40.3958" y2="21.0967" gradientUnits="userSpaceOnUse">
<stop offset="0.174745" stop-color="#F0DEFB"/>
<stop offset="0.907002" stop-color="white" stop-opacity="0"/>
</linearGradient>
<linearGradient id="paint1_linear" x1="40.2516" y1="15.9142" x2="40.4359" y2="20.9548" gradientUnits="userSpaceOnUse">
<stop stop-color="#AE043D"/>
<stop offset="1" stop-color="#70092B"/>
</linearGradient>
<linearGradient id="paint2_linear" x1="46.7664" y1="24.8667" x2="25.7579" y2="27.8958" gradientUnits="userSpaceOnUse">
<stop stop-color="#911B2F"/>
<stop offset="1" stop-color="#EA2B6A"/>
</linearGradient>
<linearGradient id="paint3_linear" x1="45.2915" y1="23.9077" x2="36.4949" y2="34.9776" gradientUnits="userSpaceOnUse">
<stop offset="0.455579" stop-color="#911B2F"/>
<stop offset="1" stop-color="#FF3E7E"/>
</linearGradient>
<linearGradient id="paint4_linear" x1="39.717" y1="45.3133" x2="43.0977" y2="53.3643" gradientUnits="userSpaceOnUse">
<stop stop-color="#F3F0F7"/>
<stop offset="1" stop-color="#E6D8F0"/>
</linearGradient>
<linearGradient id="paint5_linear" x1="39.6819" y1="45.2885" x2="46.6241" y2="51.2881" gradientUnits="userSpaceOnUse">
<stop stop-color="white"/>
<stop offset="1" stop-color="#E6D8F0"/>
</linearGradient>
<linearGradient id="paint6_linear" x1="27.2978" y1="18.08" x2="50.6788" y2="18.5817" gradientUnits="userSpaceOnUse">
<stop stop-color="#F3F0F7"/>
<stop offset="1" stop-color="#E6D8F0"/>
</linearGradient>
<linearGradient id="paint7_linear" x1="39.5613" y1="6.14158" x2="42.6521" y2="14.6274" gradientUnits="userSpaceOnUse">
<stop stop-color="#F3F0F7"/>
<stop offset="1" stop-color="#E6D8F0"/>
</linearGradient>
</defs>
</svg>
