<?xml version="1.0" encoding="utf-8"?>
<!-- Generator: Adobe Illustrator 26.0.2, SVG Export Plug-In . SVG Version: 6.00 Build 0)  -->
<svg version="1.1" id="Layer_1" xmlns="http://www.w3.org/2000/svg" xmlns:xlink="http://www.w3.org/1999/xlink" x="0px" y="0px"
	 viewBox="0 0 80 56" style="enable-background:new 0 0 80 56;" xml:space="preserve">
<style type="text/css">
	.st0{fill:#ED264E;}
	.st1{fill:#E79D3A;}
	.st2{fill:#F3B267;}
	.st3{fill:#A1CFDB;}
	.st4{fill:#5F3A16;}
	.st5{fill:#FDBE10;}
	.st6{fill:#673B16;}
	.st7{fill:#E31C3A;}
	.st8{fill:#FBED21;}
	.st9{fill:#94B73D;}
	.st10{fill:#F1932E;}
</style>
<g>
	<g>
		<path class="st0" d="M67.5,18.6c0.4-1.2,2.3-1.3,2.7-0.2l1.5,3c-0.3,0.1-0.6,0.3-0.9,0.4c-1.6-3.1-1.6-3.2-1.9-3.2
			c-0.3,0-0.5,0.2-0.6,0.5l-4.1,11.5h-1.1L67.5,18.6z"/>
	</g>
	<g>
		<polygon class="st1" points="64.4,50.3 64.5,38.2 58.7,7.6 28.1,7.6 22.4,38.2 22.4,50.3 		"/>
		<polygon class="st2" points="24.4,18.1 62.6,18.1 60.7,7.6 26.3,7.6 		"/>
		
			<rect x="22.4" y="38.2" transform="matrix(-1 -4.493085e-11 4.493085e-11 -1 86.8826 88.5576)" class="st2" width="42" height="12.1"/>
	</g>
	<g>
		<path class="st3" d="M53.6,27.2v5.4c0.9,8.2,0.9,8.3,1.9,17.7h12.8c1.1-10.8,1.3-12,1.9-17.6v-5.6H53.6z"/>
	</g>
	<polygon class="st4" points="54.5,27.1 54.5,25 69.2,25 69.2,27.1 71.4,27.1 71.4,30 52.4,30 52.4,27.1 	"/>
	<polygon class="st0" points="53.9,36 54.5,41.1 69.3,41.1 69.9,36 	"/>
</g>
<g>
	<path class="st5" d="M44.4,33.5c0-0.3,0.1-0.6,0.1-0.9c0-6.7-8.1-12.1-18.1-12.1c-10,0-18.1,5.4-18.1,12.1c0,0.3,0,0.6,0.1,0.9
		H44.4z"/>
	<path class="st5" d="M8.3,44.7c0,0.2-0.1,0.5-0.1,0.7c0,2.7,1.9,4.9,4.3,4.9h27.6c2.4,0,4.3-2.2,4.3-4.9c0-0.2,0-0.5-0.1-0.7H8.3z"
		/>
	<path class="st6" d="M45.5,40.1c0,1.9-1.4,3.4-3.2,3.4H10.6c-1.7,0-3.2-1.5-3.2-3.4l0,0c0-1.9,1.4-3.4,3.2-3.4h31.7
		C44,36.7,45.5,38.2,45.5,40.1L45.5,40.1z"/>
	<rect x="9.1" y="33.5" class="st7" width="34.4" height="2.3"/>
	<polygon class="st8" points="43.5,43.6 8.7,43.6 8.7,44.9 14.1,44.9 18.7,47.5 21.8,44.9 43.5,44.9 	"/>
	<path class="st9" d="M43.5,35.6H8.7v1.2h16.5c-0.1,0.2-0.1,0.4-0.1,0.6c0,1.4,1.3,2.5,3,2.5c0.8,0,1.5-0.3,2.1-0.7
		c0.8,1.3,2.3,2.2,4,2.2c2.6,0,4.7-1.9,4.7-4.3c0-0.1,0-0.1,0-0.2h4.7V35.6z"/>
	<path class="st10" d="M18.6,27.9c0,0.5-0.9,0.9-2,0.9c-1.1,0-2-0.4-2-0.9c0-0.5,0.9-0.9,2-0.9C17.8,27,18.6,27.4,18.6,27.9z"/>
	<path class="st10" d="M23.9,25.2c0,0.5-0.9,0.9-2,0.9c-1.1,0-2-0.4-2-0.9c0-0.5,0.9-0.9,2-0.9C23,24.4,23.9,24.8,23.9,25.2z"/>
	<path class="st10" d="M28.5,27.7c0,0.5-0.9,0.9-2,0.9c-1.1,0-2-0.4-2-0.9c0-0.5,0.9-0.9,2-0.9C27.7,26.8,28.5,27.2,28.5,27.7z"/>
	<path class="st10" d="M33.5,25.5c0,0.5-0.9,0.9-2,0.9c-1.1,0-2-0.4-2-0.9c0-0.5,0.9-0.9,2-0.9C32.6,24.7,33.5,25.1,33.5,25.5z"/>
	<path class="st10" d="M37.3,28.6c0,0.5-0.9,0.9-2,0.9c-1.1,0-2-0.4-2-0.9c0-0.5,0.9-0.9,2-0.9C36.4,27.7,37.3,28.1,37.3,28.6z"/>
</g>
</svg>
