<?xml version="1.0" encoding="utf-8"?>
<!-- Generator: Adobe Illustrator 23.0.2, SVG Export Plug-In . SVG Version: 6.00 Build 0)  -->
<svg version="1.1" id="Слой_1" xmlns="http://www.w3.org/2000/svg" xmlns:xlink="http://www.w3.org/1999/xlink" x="0px" y="0px"
	 width="80px" height="56px" viewBox="0 0 80 56" style="enable-background:new 0 0 80 56;" xml:space="preserve">
<style type="text/css">
	.st0{fill:url(#SVGID_1_);}
	.st1{fill:url(#SVGID_2_);}
	.st2{fill:url(#SVGID_3_);}
	.st3{fill:url(#SVGID_4_);}
	.st4{fill:url(#SVGID_5_);}
	.st5{fill:url(#SVGID_6_);}
	.st6{fill:url(#SVGID_7_);}
	.st7{fill:url(#SVGID_8_);}
	.st8{fill:url(#SVGID_9_);}
	.st9{fill:url(#SVGID_10_);}
	.st10{fill:url(#SVGID_11_);}
	.st11{fill:url(#SVGID_12_);}
	.st12{fill:url(#SVGID_13_);}
	.st13{fill:url(#SVGID_14_);}
	.st14{fill:url(#SVGID_15_);}
	.st15{fill:url(#SVGID_16_);}
	.st16{fill:url(#SVGID_17_);}
	.st17{fill:url(#SVGID_18_);}
	.st18{fill:url(#SVGID_19_);}
	.st19{fill:url(#SVGID_20_);}
	.st20{fill:url(#SVGID_21_);}
</style>
<g>
	<g>
		
			<linearGradient id="SVGID_1_" gradientUnits="userSpaceOnUse" x1="-4.4189" y1="40.7497" x2="-2.5071" y2="36.5998" gradientTransform="matrix(-0.5852 -0.8109 0.8109 -0.5852 5.8255 64.1588)">
			<stop  offset="0" style="stop-color:#E39964"/>
			<stop  offset="1" style="stop-color:#C77444"/>
		</linearGradient>
		<path class="st0" d="M33.7,45.3l3.5-2.6c1.3,0,3.7-0.4,3.7-0.4c0.7-0.1,1.4,0.2,1.5,0.8c0,0.1,0,0.4,0,0.6c0,0.4-0.2,0.8-0.6,1
			c-1.8,1.1-3.6,2.1-6.4,2.4L33.7,45.3z"/>
		
			<linearGradient id="SVGID_2_" gradientUnits="userSpaceOnUse" x1="-2.9438" y1="37.6254" x2="-1.4983" y2="38.3249" gradientTransform="matrix(-0.5852 -0.8109 0.8109 -0.5852 5.8255 64.1588)">
			<stop  offset="0" style="stop-color:#C77444;stop-opacity:0"/>
			<stop  offset="1" style="stop-color:#C77444"/>
		</linearGradient>
		<path class="st1" d="M33.7,45.3l0.2,0.2l8.5-1.9c0-0.2,0-0.4,0-0.6c0-0.6-0.7-0.9-1.5-0.8c0,0-2.4,0.4-3.7,0.4L33.7,45.3z"/>
		
			<linearGradient id="SVGID_3_" gradientUnits="userSpaceOnUse" x1="-2.7821" y1="36.1263" x2="5.3855" y2="29.652" gradientTransform="matrix(-0.5852 -0.8109 0.8109 -0.5852 5.8255 64.1588)">
			<stop  offset="0" style="stop-color:#E39964"/>
			<stop  offset="1" style="stop-color:#C77444"/>
		</linearGradient>
		<path class="st2" d="M29,39l2.3,1.6c0.6,0.3,1.3,0.7,2.1,1c1.1,0.4,2.3,0.5,3,0.6c0.4,0,0.6,0.3,0.6,0.7c0.1,1.3,0,2.7-0.2,4.3
			c0,0.3-0.2,0.6-0.5,0.6c-0.9,0.2-3,0.5-5.2,0c-2-0.4-3.8-1.2-4.7-1.7l-1.8-1.8L29,39z"/>
		
			<linearGradient id="SVGID_4_" gradientUnits="userSpaceOnUse" x1="1.684" y1="32.706" x2="3.1389" y2="34.2874" gradientTransform="matrix(-0.5852 -0.8109 0.8109 -0.5852 5.8255 64.1588)">
			<stop  offset="0" style="stop-color:#C77444;stop-opacity:0"/>
			<stop  offset="1" style="stop-color:#C77444"/>
		</linearGradient>
		<path class="st3" d="M33.4,41.5c-0.8-0.3-1.6-0.6-2.1-1L29,39l-3.3,4L37,44.8c0-0.7,0-1.4,0-2c0-0.4-0.3-0.7-0.6-0.7
			C35.7,42,34.4,41.9,33.4,41.5z"/>
		
			<linearGradient id="SVGID_5_" gradientUnits="userSpaceOnUse" x1="678.1962" y1="40.7497" x2="680.108" y2="36.5998" gradientTransform="matrix(0.5852 0.8109 0.8109 -0.5852 -406.1388 -506.719)">
			<stop  offset="0" style="stop-color:#E39964"/>
			<stop  offset="1" style="stop-color:#C77444"/>
		</linearGradient>
		<path class="st4" d="M19.9,26.3l3.6-2.5c0.4-1.2,1.6-3.4,1.6-3.4c0.3-0.7,0.3-1.4-0.3-1.6c-0.1-0.1-0.4-0.2-0.5-0.2
			c-0.4-0.2-0.8,0-1.2,0.3c-1.7,1.4-3.1,2.8-4.2,5.3L19.9,26.3z"/>
		
			<linearGradient id="SVGID_6_" gradientUnits="userSpaceOnUse" x1="679.6713" y1="37.6254" x2="681.1168" y2="38.3249" gradientTransform="matrix(0.5852 0.8109 0.8109 -0.5852 -406.1388 -506.719)">
			<stop  offset="0" style="stop-color:#C77444;stop-opacity:0"/>
			<stop  offset="1" style="stop-color:#C77444"/>
		</linearGradient>
		<path class="st5" d="M19.9,26.3l-0.1-0.2l4.5-7.4c0.1,0.1,0.4,0.2,0.5,0.2c0.5,0.2,0.6,1,0.3,1.6c0,0-1.2,2.2-1.6,3.4L19.9,26.3z"
			/>
		
			<linearGradient id="SVGID_7_" gradientUnits="userSpaceOnUse" x1="679.833" y1="36.1263" x2="688.0006" y2="29.652" gradientTransform="matrix(0.5852 0.8109 0.8109 -0.5852 -406.1388 -506.719)">
			<stop  offset="0" style="stop-color:#E39964"/>
			<stop  offset="1" style="stop-color:#C77444"/>
		</linearGradient>
		<path class="st6" d="M24.5,32.8l-0.8-2.6c-0.1-0.6-0.2-1.5-0.2-2.3c0-1.1,0.2-2.3,0.4-3c0.1-0.3-0.1-0.7-0.5-0.8
			c-1.2-0.5-2.6-0.9-4.2-1.2c-0.3,0-0.6,0-0.7,0.3c-0.5,0.8-1.4,2.7-1.7,4.9c-0.3,2,0,4,0.1,5l1.2,2.3L24.5,32.8z"/>
		
			<linearGradient id="SVGID_8_" gradientUnits="userSpaceOnUse" x1="684.2991" y1="32.706" x2="685.754" y2="34.2874" gradientTransform="matrix(0.5852 0.8109 0.8109 -0.5852 -406.1388 -506.719)">
			<stop  offset="0" style="stop-color:#C77444;stop-opacity:0"/>
			<stop  offset="1" style="stop-color:#C77444"/>
		</linearGradient>
		<path class="st7" d="M23.5,27.8c0,0.9,0.1,1.7,0.2,2.3l0.8,2.6l-4.8,1.9l1.8-11.4c0.7,0.2,1.3,0.4,1.9,0.7
			c0.3,0.1,0.6,0.5,0.5,0.8C23.7,25.5,23.5,26.7,23.5,27.8z"/>
		
			<linearGradient id="SVGID_9_" gradientUnits="userSpaceOnUse" x1="2.9563" y1="30.0154" x2="18.4287" y2="30.0154" gradientTransform="matrix(-0.5852 -0.8109 0.8109 -0.5852 5.8255 64.1588)">
			<stop  offset="0" style="stop-color:#E39964"/>
			<stop  offset="1" style="stop-color:#C77444"/>
		</linearGradient>
		<path class="st8" d="M24.8,30.5c1.1,3.5,3.5,6.8,6.4,9c0.3,0.2,0.2,0.6,0,0.8c-1.7,2.6-2.9,3.9-5.4,5.7c-0.3,0.2-0.6,0.2-0.8,0
			c-4.1-3-6.9-7-8.5-11.8c-0.1-0.3,0-0.6,0.3-0.8c2.5-1.9,4.2-2.5,7.2-3.3C24.3,30.2,24.7,30.2,24.8,30.5z"/>
		
			<linearGradient id="SVGID_10_" gradientUnits="userSpaceOnUse" x1="10.7183" y1="29.5051" x2="10.7183" y2="35.0581" gradientTransform="matrix(-0.5852 -0.8109 0.8109 -0.5852 5.8255 64.1588)">
			<stop  offset="0" style="stop-color:#C77444;stop-opacity:0"/>
			<stop  offset="1" style="stop-color:#C77444"/>
		</linearGradient>
		<path class="st9" d="M27.9,44.4c1.2-1.1,2.2-2.3,3.3-4c0.2-0.3,0.2-0.6,0-0.8c-3-2.2-5.3-5.5-6.4-9c-0.1-0.3-0.5-0.4-0.8-0.3
			c-2,0.5-3.5,1-5,1.8L27.9,44.4z"/>
	</g>
</g>
<g>
	<linearGradient id="SVGID_11_" gradientUnits="userSpaceOnUse" x1="64.5557" y1="21.1401" x2="51.6354" y2="20.9211">
		<stop  offset="0" style="stop-color:#E39964"/>
		<stop  offset="1" style="stop-color:#C77444"/>
	</linearGradient>
	<path class="st10" d="M63.5,24.4c0,3.1-1.6,6.8-3.9,9.7L59.2,34c-0.1-0.1,0.1-0.5-0.1-0.6c-1.1-0.5-2.5-1.2-4-2l0.3,0
		c1.9-2,3.2-4.5,3.2-7c0-7.9-1.8-9.5-4.3-10.7c-2-1-3.5-0.8-4.6-0.4l-0.1,0c-0.3-0.6-0.6-1.1-1-1.6c-0.6-0.8-1.4-1.6-2.4-2.2
		l0.1-0.1c2.6-1.7,6.1-2.3,10.2-0.3C61.6,11.7,63.6,16,63.5,24.4z"/>
	<linearGradient id="SVGID_12_" gradientUnits="userSpaceOnUse" x1="40.8794" y1="19.6755" x2="62.0118" y2="35.8807">
		<stop  offset="0" style="stop-color:#E39964"/>
		<stop  offset="1" style="stop-color:#C77444"/>
	</linearGradient>
	<path class="st11" d="M60.5,35.7c0,0.3,0,0.6-0.2,0.9c-0.5,1.4-2,2-3.4,1.4c-0.3-0.1-0.7-0.3-1.1-0.5c-1.4-0.7-3.2-1.6-5-2.6
		c-1.6-1-3.3-2.1-4.9-3.4c-0.1-0.1-0.2-0.2-0.3-0.2c-1.3-1-2.3-2.2-3-3.5c-2.8-4.8-1.9-10.7-0.1-14.3l0-0.1c0.9,0.4,1.6,1.1,1.9,1.5
		c0.5,0.6,1.1,2.1,1.4,3.8c-0.5,3,0,6.4,2.8,8.7c0.2,0.1,0.4,0.3,0.5,0.4c1.8,1.4,3.8,2.6,5.6,3.6c1.5,0.8,3,1.5,4,2
		c0.2,0.1,0.3,0.2,0.5,0.3C60.2,34.1,60.5,34.9,60.5,35.7z"/>
	<linearGradient id="SVGID_13_" gradientUnits="userSpaceOnUse" x1="35.9708" y1="38.0661" x2="55.9379" y2="38.0661">
		<stop  offset="0" style="stop-color:#E39964"/>
		<stop  offset="1" style="stop-color:#C77444"/>
	</linearGradient>
	<path class="st12" d="M55.9,37.4l-0.1,0.1c-3.2,2.4-6.8,3.8-9.9,3.8c-3.1,0-6.8-1.5-10-4c1.4-0.7,3.2-1.5,5.1-2.6l0,0
		c1.7,1,3.5,1.6,4.9,1.6c1.4,0,3.2-0.6,4.9-1.6l0,0C52.8,35.9,54.5,36.8,55.9,37.4z"/>
	<linearGradient id="SVGID_14_" gradientUnits="userSpaceOnUse" x1="33.9187" y1="9.8028" x2="43.2582" y2="28.9866">
		<stop  offset="0" style="stop-color:#E39964"/>
		<stop  offset="1" style="stop-color:#C77444"/>
	</linearGradient>
	<path class="st13" d="M49.5,13.4c1.8,3.6,2.7,9.5-0.1,14.3l0,0c-0.2-0.1-0.4-0.3-0.5-0.4c-2.8-2.2-3.3-5.6-2.8-8.7
		c-0.3-1.7-0.9-3.1-1.4-3.8c-0.3-0.4-1-1.1-1.9-1.5c-1.1-0.5-2.7-0.7-4.7,0.3c-2.5,1.2-4.4,2.7-4.4,10.6c0,2.5,1.3,5,3.2,7.1l0,0
		c-1.5,0.8-2.8,1.4-3.9,1.9c-0.3,0.1-0.5,0.3-0.8,0.5l-0.1-0.2c-2.3-2.9-3.6-6.2-3.6-9.4c0-8.4,2.1-12.6,7.2-15.1
		c4.2-2,7.8-1.3,10.4,0.5c0.9,0.6,1.7,1.4,2.4,2.2C48.9,12.2,49.2,12.8,49.5,13.4z"/>
	<linearGradient id="SVGID_15_" gradientUnits="userSpaceOnUse" x1="31.6153" y1="36.8303" x2="44.3204" y2="29.9308">
		<stop  offset="0" style="stop-color:#E39964"/>
		<stop  offset="1" style="stop-color:#C77444"/>
	</linearGradient>
	<path class="st14" d="M45.7,31.2c0.1,0.1,0.2,0.2,0.3,0.2l-0.1,0.1c-1.6,1.2-3.3,2.3-4.9,3.2c-1.9,1.1-3.6,2-5.1,2.6
		c-0.4,0.2-0.7,0.3-1,0.5c-1.3,0.6-2.9-0.1-3.3-1.5c-0.1-0.3-0.1-0.6-0.1-0.9c0-0.7,0.3-1.3,0.7-1.8c0.2-0.2,0.5-0.4,0.8-0.5
		c1-0.5,2.4-1.1,3.9-1.9c1.8-1,3.9-2.2,5.8-3.6l0.1,0C43.4,29,44.4,30.2,45.7,31.2z"/>
	<linearGradient id="SVGID_16_" gradientUnits="userSpaceOnUse" x1="38.2314" y1="32.8473" x2="39.4935" y2="35.2874">
		<stop  offset="0" style="stop-color:#C77444;stop-opacity:0"/>
		<stop  offset="1" style="stop-color:#C77444"/>
	</linearGradient>
	<path class="st15" d="M34.9,37.8c0.3-0.1,0.7-0.3,1-0.5c1.4-0.7,3.2-1.5,5.1-2.6c1.6-0.9,3.3-2,4.9-3.2l0.1-0.1
		c-0.1-0.1-0.2-0.2-0.3-0.2c-0.6-0.5-1.2-1-1.7-1.6l-12.3,7.1C32.3,37.8,33.7,38.4,34.9,37.8z"/>
	<linearGradient id="SVGID_17_" gradientUnits="userSpaceOnUse" x1="48.073" y1="23.1925" x2="46.6426" y2="25.5484">
		<stop  offset="0" style="stop-color:#C77444;stop-opacity:0"/>
		<stop  offset="1" style="stop-color:#C77444"/>
	</linearGradient>
	<path class="st16" d="M49.4,27.7c0.5-0.9,0.9-1.9,1.2-2.9l-4.7-4.7c-0.1,2.6,0.6,5.4,2.9,7.2C49,27.5,49.2,27.6,49.4,27.7
		L49.4,27.7z"/>
	<linearGradient id="SVGID_18_" gradientUnits="userSpaceOnUse" x1="33.5934" y1="25.376" x2="34.9321" y2="25.4429">
		<stop  offset="0" style="stop-color:#C77444;stop-opacity:0"/>
		<stop  offset="1" style="stop-color:#C77444"/>
	</linearGradient>
	<path class="st17" d="M31.7,17v16.1c0.1,0.2,0.2,0.3,0.4,0.5l0.1,0.2c0.2-0.2,0.5-0.4,0.8-0.5c1-0.5,2.4-1.1,3.9-1.9l0,0
		c-1.9-2.1-3.3-4.6-3.2-7.1c0-3.5,0.4-5.7,1-7.3H31.7z"/>
	<linearGradient id="SVGID_19_" gradientUnits="userSpaceOnUse" x1="45.9543" y1="38.5229" x2="45.9543" y2="34.7655">
		<stop  offset="0" style="stop-color:#C77444;stop-opacity:0"/>
		<stop  offset="1" style="stop-color:#C77444"/>
	</linearGradient>
	<path class="st18" d="M50.9,34.8c-1.7,1-3.5,1.6-4.9,1.6c-1.4,0-3.2-0.6-4.9-1.6l0,0c-1.9,1.1-3.6,2-5.1,2.6
		c0.5,0.4,1.1,0.8,1.6,1.1h16.9c0.5-0.3,0.9-0.6,1.4-1l0.1-0.1C54.5,36.8,52.8,35.9,50.9,34.8L50.9,34.8z"/>
	<linearGradient id="SVGID_20_" gradientUnits="userSpaceOnUse" x1="43.2363" y1="18.5784" x2="44.5502" y2="16.06">
		<stop  offset="0" style="stop-color:#C77444;stop-opacity:0"/>
		<stop  offset="1" style="stop-color:#C77444"/>
	</linearGradient>
	<path class="st19" d="M45.9,19.8c0-0.4,0.1-0.8,0.1-1.1c-0.3-1.7-0.9-3.1-1.4-3.8c-0.3-0.4-1-1.1-1.9-1.5l0,0.1
		c-0.7,1.3-1.2,3-1.5,4.7L45.9,19.8z"/>
	<linearGradient id="SVGID_21_" gradientUnits="userSpaceOnUse" x1="56.5996" y1="25.8357" x2="54.1824" y2="26.7697">
		<stop  offset="0" style="stop-color:#C77444;stop-opacity:0"/>
		<stop  offset="1" style="stop-color:#C77444"/>
	</linearGradient>
	<path class="st20" d="M60.1,16.2h-2.9c0.9,1.5,1.4,3.9,1.4,8.1c0,2.5-1.3,4.9-3.2,7l-0.3,0c1.5,0.8,3,1.5,4,2
		c0.2,0.1,0,0.5,0.1,0.6l0.5,0.1c0.1-0.2,0.3-0.4,0.4-0.5V16.2z"/>
</g>
</svg>
