<?xml version="1.0" encoding="utf-8"?>
<!-- Generator: Adobe Illustrator 23.0.2, SVG Export Plug-In . SVG Version: 6.00 Build 0)  -->
<svg version="1.1" id="Слой_1" xmlns="http://www.w3.org/2000/svg" xmlns:xlink="http://www.w3.org/1999/xlink" x="0px" y="0px"
	 viewBox="0 0 384 318.1" style="enable-background:new 0 0 384 318.1;" xml:space="preserve">
<style type="text/css">
	.st0{fill:#ABC6E3;}
	.st1{fill:#E9F5FD;}
	.st2{fill:#D7EBFD;}
	.st3{fill:#FDDE73;}
	.st4{fill:#FDD303;}
	.st5{fill:#F9C500;}
	.st6{fill:#F9C501;}
	.st7{fill:#F9C502;}
	.st8{fill:#D8EBFD;}
	.st9{fill:#C3E1FE;}
	.st10{fill:#68C945;}
	.st11{fill:#FC4855;}
	.st12{fill:#80D161;}
	.st13{fill:#046942;}
	.st14{fill:#027B4E;}
	.st15{fill:#FC4856;}
	.st16{fill:#FA2D3B;}
	.st17{fill:#FA2E3C;}
	.st18{fill:#FA2D3C;}
	.st19{fill:#FDDE72;}
	.st20{fill:#FC4854;}
	.st21{fill:#F9C601;}
	.st22{fill:#047C4E;}
</style>
<g>
	<path class="st0" d="M352,87.9c-2.5,5.1-6.6,6.5-12.3,6.4c-28.9-0.3-57.8-0.1-86.7-0.1c-4.5,0-8.3,1.1-11.1,5
		c-3.3,4.5-8.1,6.3-13.7,6.3c-5.5-0.1-11.1,0-16.6,0c0-13.4,0-26.7,0-40.1c5.5,0,11.1,0.1,16.6,0c5.7-0.1,10.5,1.9,13.9,6.5
		c2.7,3.6,6.3,4.8,10.6,4.8c29,0,58,0.1,87-0.1c5.6,0,9.7,1.4,12.3,6.4C352,84.6,352,86.2,352,87.9z"/>
	<path class="st1" d="M313.5,271.5c2.8,0.5,5.8,0.5,8.5,1.5c4.5,1.7,6.2,5.5,5.6,11c-0.4,3.8-3.4,7.6-7.4,8.2
		c-3.8,0.6-7.6,0.6-11.4,0.7c-3.1,0.1-6.2,0-9.4,0c-70,0-140,0-210,0c-5.2,0-10.4,0-15.7,0c-0.9-0.8-1.7-1.7-2.6-2.5
		c-2.2-1.9-3.6-4-3.8-7.1c-0.4-5.9,2.5-9.4,7.6-11.5c1.8-0.1,3.6-0.1,5.4-0.2c2.4,0,4.7,0,7.1,0c16.7,0,33.4,0,50.2,0
		c4,0,7.9,0,11.9,0c5.7,0,11.3,0.1,17,0.1c16.7,0,33.4,0,50.2,0c5.7,0,11.3,0,17,0c5.4,0,10.9,0,16.3,0c6.5,0,12.9,0,19.4,0
		c3.2,0,6.3,0,9.5,0c4.4,0,8.7,0,13.1,0C299.1,271.5,306.3,271.5,313.5,271.5z"/>
	<path class="st2" d="M89.3,292.9c70,0,140,0,210,0c-4.4,7.2-8.8,14.4-13.3,21.5c-1.5,2.4-3.7,3.6-6.8,3.6
		c-57.9-0.1-115.8-0.1-173.6-0.1C100.2,309.6,94.8,301.3,89.3,292.9z"/>
	<path class="st3" d="M178.5,64.6c0.2-1.4,0.4-2.8,0.4-4.3c0.2-4.6,3.4-8.1,7.8-8.2c4.4-0.1,8,3.1,8.5,7.5c0.2,1.5,0.1,3.1,0.1,4.7
		c0,13.1,0,26.3,0,39.4c0,3.3,1.4,5.8,4.3,7.4c3,1.7,5.8,1.3,8.5-0.6c1.2-0.8,2.1-1.9,3.2-2.8c0.1,1.3,0.3,2.7,0.3,4
		c0,28.3,0.1,56.5,0.1,84.8c0,9.3-0.1,18.6-0.1,27.9c-1.5-0.4-2.9-1-4.4-1.3c-4-0.8-8-1.6-12-2.4c0-0.3,0.1-0.6,0.1-0.9
		c0-34.3,0-68.5,0-102.8c0-0.9-0.2-1.7-0.2-1.8c-2.9,1.2-5.6,3.2-8.2,3.1c-2.7-0.1-5.3-2.3-7.8-3.5c0,2.4,0,5.4,0,8.3
		c0,17.5-0.1,35.1-0.1,52.6c-1,1.2-1.9,2.5-3.1,3.5c-2.4,2.2-5.1,2.7-8.1,1.4c-3-1.3-5.1-3.4-5.1-6.9c0-21.6,0-43.2,0-64.8
		c0-0.4,0.2-0.8,0.3-1.2c0.3,0.2,0.6,0.3,0.8,0.5c3.4,3.8,6,4.7,9.8,3.3c3.5-1.4,4.9-3.8,4.9-8.8C178.5,90.1,178.5,77.4,178.5,64.6z
		"/>
	<path class="st4" d="M195.1,220.8c4,0.8,8,1.6,12,2.4c1.5,0.3,3,0.8,4.4,1.3c1.3,0.4,2.5,0.8,3.8,1.3c5.4,3.6,10.8,7.2,16.2,10.7
		c3.8,4.8,7.6,9.6,11.4,14.4c3.5,6.5,5.8,13.4,6.9,20.7c-5.4,0-10.9,0-16.3,0c-4.4-21.6-25.6-37.5-48.6-33.9
		c-16.8,2.7-32.1,15.8-35.4,33.8c-4,0-7.9,0-11.9,0c-0.2-0.9-0.4-1.8-0.7-2.7c-6.8-14.8-25.3-20.1-38.9-11.1c-5,3.3-9,7.7-10.5,13.8
		c-2.4,0-4.7,0-7.1,0c0.7-5.4-1.2-10.1-4.4-14.3c0.3-0.4,0.7-0.7,1-1.1c6.9-9.5,15.8-16,27.6-18.1c12.8-2.3,24.3,0.5,34.5,8.6
		c1.8,1.4,2.7,1.3,4-0.4c2-2.6,4.3-5,6.4-7.6c0.7-0.8,1.2-1.8,1.8-2.8c0.5-0.2,1-0.2,1.4-0.5c5.6-3.4,11.2-6.8,16.8-10.3
		c3.1-1,6.2-2,9.3-3C184.3,221.6,189.7,221.2,195.1,220.8z"/>
	<path class="st5" d="M195.1,220.8c-5.4,0.4-10.8,0.8-16.2,1.2c0-15.4,0-30.9-0.1-46.3c0-17.5,0.1-35.1,0.1-52.6c0-2.9,0-5.8,0-8.3
		c2.5,1.2,5.1,3.4,7.8,3.5c2.6,0.1,5.3-1.9,8.2-3.1c0,0.1,0.2,0.9,0.2,1.8c0,34.3,0,68.5,0,102.8
		C195.2,220.2,195.1,220.5,195.1,220.8z"/>
	<path class="st6" d="M151.4,235.8c-0.6,0.9-1.1,1.9-1.8,2.8c-2.1,2.6-4.4,5-6.4,7.6c-1.3,1.7-2.3,1.8-4,0.4
		c-10.2-8-21.7-10.9-34.5-8.6c-11.8,2.2-20.7,8.6-27.6,18.1c-0.3,0.4-0.7,0.8-1,1.1c-2.9-1.6-5.8-3.3-8.6-4.9
		c-2.1-0.3-4.2-0.5-6.3-0.8c1.4-2.4,2.8-4.8,4.2-7.2c2.2-2.4,4.4-4.8,6.6-7.2c2.9-2.3,5.9-4.6,8.8-6.9c3.3-1.7,6.7-3.4,10-5.1
		c3-1,6-1.9,9-2.9c3.6-0.4,7.2-0.9,10.8-1.3c8.3,0,16.3,1.3,24,4.2c3.7,1.9,7.5,3.9,11.2,5.8l0,0c0.2,0.2,0.5,0.4,0.7,0.6
		C148.1,232.9,149.8,234.4,151.4,235.8z"/>
	<path class="st7" d="M231.6,236.5c-5.4-3.6-10.8-7.2-16.2-10.7c5.8-3.8,12.5-5.2,19.1-6.8c10-1.2,19.8-0.5,29.2,3.1
		c14.6,5.6,25.6,15.3,32.6,29.4c-5.8,0.2-10.5,2.8-14.3,7.1c-3.5-4.5-6.4-9.6-10.6-13.3C259.8,235.3,246.4,232.1,231.6,236.5z"/>
	<path class="st6" d="M211.3,107.8c-1.1,0.9-2.1,2-3.2,2.8c-2.7,1.9-5.5,2.3-8.5,0.6c-2.9-1.6-4.3-4.1-4.3-7.4c0-13.1,0-26.3,0-39.4
		c3.1-5.1,6.5-6.8,10.8-5.3c3,1.1,4.5,3.4,5.5,6.3c0,13.4,0,26.7,0,40.1C211.5,106.2,211.4,107,211.3,107.8z"/>
	<path class="st6" d="M178.5,64.6c0,12.7,0,25.5-0.1,38.2c0,5-1.4,7.4-4.9,8.8c-3.8,1.4-6.4,0.5-9.8-3.3c-0.2-0.2-0.5-0.3-0.8-0.5
		c-0.1-3.3-0.4-6.7-0.4-10c0-10.1-0.1-20.3,0-30.4c0-4.8,2.5-8,6.8-8.8C173.3,58,176.7,60.2,178.5,64.6z"/>
	<path class="st8" d="M74.9,271.8c-5.1,2.2-8,5.7-7.6,11.5c0.2,3.1,1.6,5.2,3.8,7.1c0.9,0.8,1.7,1.7,2.6,2.5c-1.8,0-3.5-0.1-5.3,0
		c-2.8,0.2-5.7,0.4-8.5,0.6c-1.9-0.2-3.9-0.5-5.8-0.6c-5-0.2-10,0.1-14.9-0.7c-5.5-0.8-8.6-5.7-8.1-11.5c0.4-4.9,4.9-9,10.2-9.2
		c1.5-0.1,2.9,0,4.4-0.1c3.5,0,7,0,10.5,0C62.4,271.6,68.7,271.7,74.9,271.8z"/>
	<path class="st9" d="M59.9,293.6c2.8-0.2,5.7-0.5,8.5-0.6c1.8-0.1,3.5,0,5.3,0c5.2,0,10.4,0,15.7,0c5.4,8.4,10.9,16.7,16.3,25.1
		c-8.9,0-17.8,0-26.6,0c-2.7,0-4.6-1-6-3.2C68.6,307.7,64.2,300.7,59.9,293.6z"/>
	<path class="st10" d="M90.6,225.1c-3.3,1.7-6.7,3.4-10,5.1c-1.2-1.7-2.7-3.2-3.5-5.1c-2.2-5.5-4-11.2-5.9-16.8
		c-0.1-8.7,1.5-17,6.3-24.4c2.6-4.1,3.5-4.4,7.9-2.6c2,0.8,3.9,2,5.8,3c-1.5,3.8-3.4,7.5-4.5,11.5c-1.3,4.8-2.1,9.7-0.5,14.6
		C87.8,215.3,89.2,220.2,90.6,225.1z"/>
	<path class="st11" d="M234.5,219c-6.6,1.5-13.3,3-19.1,6.8c-1.3-0.4-2.5-0.8-3.8-1.3c0-9.3,0.1-18.6,0.1-27.9
		c12.5-3.9,21.9,3.8,23.4,13.1C235.5,212.7,234.7,215.9,234.5,219z"/>
	<path class="st12" d="M86.3,210.4c-1.6-4.9-0.8-9.9,0.5-14.6c1.1-3.9,2.9-7.7,4.5-11.5c13.7,8.3,19.8,20.7,19.2,36.6
		c-3.6,0.4-7.2,0.9-10.8,1.3c-1.2-3.5-2.3-7.1-3.5-10.6c-0.7-2.2-1.7-4.3-4.4-4.6C89,206.8,87.5,208.3,86.3,210.4z"/>
	<path class="st11" d="M151.4,235.8c-1.7-1.5-3.3-2.9-5-4.4c-0.2-0.2-0.5-0.4-0.7-0.6c0,0,0,0,0,0c0-0.9,0-1.9-0.2-2.8
		c-1.6-7.9,1.6-14.8,8.4-18.7c0.7-0.4,1.2-1.2,1.8-1.8c8.3,1.8,13.3,8.2,13.8,17.4c-5.6,3.4-11.2,6.9-16.8,10.3
		C152.4,235.6,151.9,235.7,151.4,235.8z"/>
	<path class="st13" d="M71.8,237.1c-2.2,2.4-4.4,4.8-6.6,7.2c-10.8-5.3-17.6-14-20.8-25.5c-0.6-2.3-0.3-4.3,2-5.2
		c4.2-1.7,8.5-3.1,12.7-4.7c-1.2,1.7-3.8,2.4-3,5.5C59,223.8,63.5,231.7,71.8,237.1z"/>
	<path class="st14" d="M71.8,237.1c-8.3-5.4-12.9-13.4-15.5-22.8c-0.9-3.1,1.7-3.8,3-5.5c4-0.2,8-0.4,12-0.5
		c2,5.6,3.8,11.3,5.9,16.8c0.7,1.9,2.3,3.4,3.5,5.1C77.7,232.6,74.8,234.9,71.8,237.1z"/>
	<path class="st15" d="M313.5,271.5c-7.2,0-14.4,0-21.7,0.1c-0.6-6.3,1.2-11.7,6.2-15.8c1.3-1,2.6-2,3.9-3
		C310,255.7,314.2,262.6,313.5,271.5z"/>
	<path class="st16" d="M301.9,252.8c-1.3,1-2.6,1.9-3.9,3c-5,4.1-6.8,9.5-6.2,15.8c-4.4,0-8.7,0-13.1,0c-0.6-4.7,0.8-9,3.2-13
		c3.8-4.3,8.4-6.9,14.3-7.1C298.1,251.9,300,252.4,301.9,252.8z"/>
	<path class="st17" d="M155.8,207.6c-0.6,0.6-1.1,1.4-1.8,1.8c-6.8,3.9-9.9,10.8-8.4,18.7c0.2,0.9,0.1,1.9,0.2,2.8
		c-3.8-1.9-7.5-3.9-11.2-5.8c0.6-11.2,8.6-18.8,19.2-18C154.4,207.1,155.1,207.4,155.8,207.6z"/>
	<path class="st18" d="M56.1,271.5c-3.5,0-7,0-10.5,0c-0.5-10.8,3.8-16.4,15.5-20c2.1,0.3,4.2,0.5,6.3,0.8c-1.7,1.1-3.5,2.1-5.1,3.4
		C57.4,259.8,55.6,265.3,56.1,271.5z"/>
	<path class="st19" d="M149.5,271.5c3.3-18.1,18.6-31.2,35.4-33.8c23-3.6,44.2,12.3,48.6,33.9c-5.7,0-11.3,0-17,0
		c-4.8-15.8-24.3-23.3-38.4-14.6c-5.6,3.5-10.3,7.9-11.7,14.7C160.8,271.6,155.1,271.6,149.5,271.5z"/>
	<path class="st3" d="M281.9,258.6c-2.4,4-3.8,8.2-3.2,13c-3.2,0-6.3,0-9.5,0c-1.9-11-13.3-21.4-26.3-20.7
		c-3.8-4.8-7.6-9.6-11.4-14.4c14.9-4.4,28.3-1.2,39.7,8.8C275.5,249,278.4,254.1,281.9,258.6z"/>
	<path class="st5" d="M87.5,271.6c1.5-6.1,5.5-10.5,10.5-13.8c13.6-9,32.1-3.6,38.9,11.1c0.4,0.8,0.5,1.8,0.7,2.7
		C120.9,271.6,104.2,271.6,87.5,271.6z"/>
	<path class="st6" d="M166.4,271.6c1.5-6.8,6.1-11.2,11.7-14.7c14.1-8.7,33.6-1.2,38.4,14.6C199.9,271.6,183.2,271.6,166.4,271.6z"
		/>
	<path class="st20" d="M56.1,271.5c-0.5-6.3,1.3-11.7,6.2-15.8c1.6-1.3,3.4-2.3,5.1-3.4c2.9,1.6,5.8,3.3,8.6,4.9
		c3.1,4.3,5,8.9,4.4,14.3c-1.8,0.1-3.6,0.1-5.4,0.2C68.7,271.7,62.4,271.6,56.1,271.5z"/>
	<path class="st21" d="M243,250.9c13-0.8,24.4,9.7,26.3,20.7c-6.5,0-12.9,0-19.4,0C248.8,264.3,246.4,257.4,243,250.9z"/>
	<path class="st22" d="M86.3,210.4c1.2-2.1,2.7-3.7,5.4-3.4c2.8,0.3,3.7,2.4,4.4,4.6c1.2,3.5,2.3,7.1,3.5,10.6c-3,1-6,1.9-9,2.9
		C89.2,220.2,87.8,215.3,86.3,210.4z"/>
	<path class="st17" d="M145.7,230.9c0.2,0.2,0.5,0.4,0.7,0.6C146.2,231.3,146,231.1,145.7,230.9z"/>
</g>
</svg>
