<svg width="80" height="56" viewBox="0 0 80 56" fill="none" xmlns="http://www.w3.org/2000/svg">
<g clip-path="url(#clip0)">
<path d="M36.9613 13.5981C36.9613 13.5981 21.7716 22.8911 16.1555 48.1459C15.7376 50.0252 17.8861 51.4132 19.4246 50.256C26.158 45.1916 40.4721 36.147 60.2784 32.8957C62.5359 32.5251 63.6756 29.9779 62.4476 28.0476C59.4558 23.345 52.4504 16.1058 36.9613 13.5981V13.5981Z" fill="url(#paint0_linear)"/>
<path d="M62.4106 27.9902C40.6479 30.6353 24.9361 40.5073 17.7823 45.888C17.4056 46.1713 16.9925 46.3015 16.5893 46.3103C16.4394 46.9144 16.2933 47.5254 16.1547 48.1489C15.7372 50.0271 17.887 51.4125 19.4246 50.256C26.1591 45.1907 40.4772 36.1438 60.2888 32.8941C62.5331 32.5259 63.6776 29.9854 62.4585 28.0654C62.4427 28.0404 62.4267 28.0153 62.4106 27.9902V27.9902Z" fill="url(#paint1_linear)"/>
<path d="M63.2462 29.8626C63.2462 29.8626 59.2901 15.6614 35.617 12.3794C35.617 12.3794 20.4971 21.5432 15.0498 45.8567C14.6444 47.6668 16.8005 48.9591 18.3313 47.8232C18.9157 47.3896 19.5576 46.926 20.2557 46.4386C21.1297 45.8284 22.3296 46.4547 22.3296 47.5205V47.5964C22.3296 48.7232 23.243 49.6367 24.3698 49.6367C25.4967 49.6367 26.4101 48.7232 26.4101 47.5964V45.459C26.4101 43.603 27.423 41.8953 29.0526 41.007C33.0408 38.833 37.7647 36.6174 43.151 34.6952C44.0097 34.3888 44.9136 35.0264 44.9136 35.9381C44.9136 37.065 45.827 37.9784 46.9539 37.9784C48.0807 37.9784 48.9942 37.065 48.9942 35.9381V33.312C48.9942 33.0167 49.1906 32.7573 49.4749 32.6773L49.4883 32.6736C49.9112 32.5546 50.3308 32.8725 50.3308 33.3118V39.9603C50.3308 41.0871 51.2443 42.0006 52.3711 42.0006C53.498 42.0006 54.4114 41.0871 54.4114 39.9603V34.2864C54.4114 32.6036 55.5997 31.1496 57.2517 30.829C59.1947 30.452 61.1936 30.1268 63.2462 29.8626V29.8626Z" fill="url(#paint2_linear)"/>
<path d="M35.6171 12.3794C35.6171 12.3794 32.7301 14.1293 29.0248 18.128L48.3344 37.4375C48.7392 37.0647 48.9944 36.5319 48.9944 35.9381V33.312C48.9944 33.0167 49.1908 32.7573 49.4751 32.6773L49.4885 32.6736C49.9114 32.5546 50.331 32.8725 50.331 33.3118V39.4343L52.8408 41.9441C53.7409 41.7318 54.4116 40.9252 54.4116 39.9603V34.2863C54.4116 32.6035 55.5999 31.1495 57.2519 30.8289C59.1948 30.4518 61.1936 30.1266 63.2462 29.8625C63.2463 29.8625 59.2902 15.6613 35.6171 12.3794V12.3794Z" fill="url(#paint3_linear)"/>
<path d="M26.1878 31.204C25.9872 31.1983 25.82 31.3564 25.8144 31.5568C25.8087 31.7574 25.9668 31.9246 26.1673 31.9302C26.3678 31.9359 26.535 31.7778 26.5406 31.5773C26.5463 31.3767 26.3883 31.2096 26.1878 31.204Z" fill="#FEB838"/>
<path d="M36.6892 35.9594C36.4886 35.9537 36.3214 36.1117 36.3158 36.3122C36.3101 36.5128 36.4682 36.68 36.6687 36.6855C36.8693 36.6912 37.0364 36.5332 37.042 36.3327C37.0476 36.1322 36.8896 35.965 36.6892 35.9594Z" fill="#FEB838"/>
<path d="M35.3444 34.9879C35.1999 35.0209 35.1094 35.1647 35.1423 35.3093C35.1752 35.4538 35.319 35.5443 35.4636 35.5115C35.6081 35.4785 35.6986 35.3347 35.6658 35.1901C35.633 35.0455 35.4889 34.9551 35.3444 34.9879Z" fill="#FEB838"/>
<path d="M45.0237 25.5202C44.9171 25.6902 44.9685 25.9144 45.1385 26.021C45.3085 26.1275 45.5327 26.0762 45.6392 25.9062C45.7458 25.7362 45.6944 25.5119 45.5244 25.4055C45.3544 25.2988 45.1302 25.3502 45.0237 25.5202Z" fill="#FEB838"/>
<path d="M46.2238 25.4602C46.3581 25.5444 46.535 25.5038 46.6191 25.3695C46.7033 25.2353 46.6627 25.0584 46.5285 24.9742C46.3942 24.8901 46.2173 24.9307 46.1332 25.0649C46.049 25.1992 46.0896 25.3761 46.2238 25.4602Z" fill="#FEB838"/>
<path d="M46.0173 23.9462C46.0981 23.9969 46.2049 23.9724 46.2556 23.8915C46.3063 23.8106 46.2819 23.7038 46.201 23.6531C46.1201 23.6024 46.0133 23.6269 45.9627 23.7077C45.9119 23.7887 45.9364 23.8955 46.0173 23.9462V23.9462Z" fill="#FEB838"/>
<path d="M43.5789 23.2911C43.7786 23.3112 43.9567 23.1657 43.9768 22.9661C43.9969 22.7665 43.8514 22.5884 43.6518 22.5683C43.4522 22.5482 43.274 22.6937 43.2539 22.8933C43.2338 23.093 43.3793 23.271 43.5789 23.2911Z" fill="#FEB838"/>
<path d="M44.1738 25.8012C44.2688 25.8108 44.3536 25.7415 44.3631 25.6465C44.3727 25.5515 44.3034 25.4667 44.2084 25.4572C44.1134 25.4476 44.0286 25.5169 44.0191 25.6119C44.0095 25.7068 44.0788 25.7916 44.1738 25.8012Z" fill="#FEB838"/>
<path d="M44.8501 24.3568C44.9966 24.3344 45.0972 24.1974 45.0749 24.0509C45.0524 23.9043 44.9155 23.8038 44.769 23.8261C44.6224 23.8486 44.5218 23.9855 44.5442 24.132C44.5666 24.2787 44.7036 24.3793 44.8501 24.3568Z" fill="#FEB838"/>
<path d="M24.6869 40.9027C24.7814 40.9162 24.8691 40.8505 24.8826 40.756C24.8961 40.6615 24.8305 40.5739 24.7359 40.5604C24.6414 40.5468 24.5538 40.6125 24.5403 40.707C24.5268 40.8015 24.5924 40.8892 24.6869 40.9027Z" fill="#FEB838"/>
<path d="M22.1926 41.2932C22.3832 41.2306 22.487 41.0254 22.4244 40.8347C22.3617 40.6441 22.1565 40.5403 21.9658 40.603C21.7752 40.6656 21.6714 40.8708 21.7341 41.0615C21.7967 41.2521 22.0019 41.3559 22.1926 41.2932V41.2932Z" fill="#FEB838"/>
<path d="M20.0023 43.8312C20.0968 43.8447 20.1845 43.779 20.198 43.6845C20.2115 43.59 20.1458 43.5024 20.0513 43.4888C19.9568 43.4753 19.8692 43.541 19.8556 43.6355C19.8421 43.73 19.9078 43.8176 20.0023 43.8312Z" fill="#FEB838"/>
<path d="M16.417 46.2447C16.6076 46.182 16.7113 45.9768 16.6487 45.7861C16.5861 45.5956 16.3809 45.4917 16.1902 45.5544C15.9996 45.617 15.8958 45.8222 15.9584 46.0129C16.0211 46.2035 16.2264 46.3073 16.417 46.2447Z" fill="#FEB838"/>
<path d="M16.6191 46.6874C16.6685 46.8379 16.8305 46.9197 16.981 46.8703C17.1315 46.8209 17.2134 46.6589 17.164 46.5084C17.1146 46.3579 16.9525 46.276 16.802 46.3254C16.6516 46.3748 16.5697 46.5369 16.6191 46.6874Z" fill="#FEB838"/>
<path d="M17.7817 46.6372C17.8724 46.6074 17.9218 46.5098 17.892 46.419C17.8622 46.3283 17.7644 46.2789 17.6737 46.3087C17.583 46.3385 17.5336 46.4363 17.5634 46.527C17.5932 46.6176 17.691 46.667 17.7817 46.6372Z" fill="#FEB838"/>
<path d="M39.6683 26.8543C40.9115 26.8543 41.9193 26.1442 41.9193 25.2682C41.9193 24.3922 40.9115 23.6821 39.6683 23.6821C38.425 23.6821 37.4172 24.3922 37.4172 25.2682C37.4172 26.1442 38.425 26.8543 39.6683 26.8543Z" fill="url(#paint4_linear)"/>
<path d="M36.0888 23.5326C36.2874 23.5326 36.4485 23.3716 36.4485 23.1729C36.4485 22.9743 36.2874 22.8132 36.0888 22.8132C35.8901 22.8132 35.7291 22.9743 35.7291 23.1729C35.7291 23.3716 35.8901 23.5326 36.0888 23.5326Z" fill="url(#paint5_linear)"/>
<path d="M24.5379 32.594C25.7811 32.594 26.789 31.8839 26.789 31.008C26.789 30.132 25.7811 29.4219 24.5379 29.4219C23.2946 29.4219 22.2868 30.132 22.2868 31.008C22.2868 31.8839 23.2946 32.594 24.5379 32.594Z" fill="url(#paint6_linear)"/>
<path d="M38.3716 33.9299C38.5703 33.9299 38.7313 33.7688 38.7313 33.5702C38.7313 33.3715 38.5703 33.2104 38.3716 33.2104C38.173 33.2104 38.0119 33.3715 38.0119 33.5702C38.0119 33.7688 38.173 33.9299 38.3716 33.9299Z" fill="url(#paint7_linear)"/>
<path d="M36.2094 14.1003C36.4081 14.1003 36.5691 13.9392 36.5691 13.7406C36.5691 13.5419 36.4081 13.3809 36.2094 13.3809C36.0108 13.3809 35.8497 13.5419 35.8497 13.7406C35.8497 13.9392 36.0108 14.1003 36.2094 14.1003Z" fill="url(#paint8_linear)"/>
<path d="M39.8536 16.5043C37.6902 14.8729 34.1827 14.8729 32.0193 16.5043C29.856 18.1357 29.856 20.7807 32.0193 22.412C34.1827 24.0434 37.6902 24.0434 39.8536 22.412C42.0169 20.7807 42.0169 18.1357 39.8536 16.5043V16.5043ZM33.449 20.5203C32.0753 19.6155 32.0753 18.1481 33.449 17.2434C34.8226 16.3386 37.0497 16.339 38.4234 17.2438C39.797 18.1486 39.7975 19.6156 38.424 20.5203C37.0502 21.4251 34.8225 21.4251 33.449 20.5203V20.5203Z" fill="url(#paint9_linear)"/>
<ellipse cx="35.9361" cy="18.8146" rx="4.16667" ry="2.77778" fill="#FFBC34"/>
<path d="M32.678 21.4904C34.4773 22.7984 37.3955 22.7984 39.1947 21.4904C40.9945 20.1821 40.994 18.0613 39.1947 16.7535C37.3949 15.4451 34.4778 15.4451 32.678 16.7535C30.8787 18.0613 30.8781 20.1821 32.678 21.4904ZM38.4238 17.2435C39.7974 18.1483 39.7974 19.6156 38.4238 20.5203C37.0502 21.4251 34.823 21.4247 33.4494 20.5199C32.0758 19.6151 32.0753 18.1482 33.4488 17.2435C34.8225 16.3388 37.0502 16.3388 38.4238 17.2435Z" fill="url(#paint10_linear)"/>
<ellipse cx="23.3314" cy="37.6804" rx="3.8085" ry="2.43064" fill="#FFBC34"/>
<path d="M26.2447 35.4452C24.3981 34.0528 21.4043 34.0528 19.5577 35.4452C17.7111 36.8377 17.7111 39.0953 19.5577 40.4878C21.4043 41.8802 24.3981 41.8802 26.2447 40.4878C28.0912 39.0953 28.0912 36.8377 26.2447 35.4452V35.4452ZM20.7779 38.8731C19.6055 38.1008 19.6055 36.8484 20.7779 36.0761C21.9504 35.3038 23.8513 35.3041 25.0238 36.0764C26.1962 36.8486 26.1967 38.1008 25.0243 38.8731C23.8519 39.6453 21.9504 39.6453 20.7779 38.8731V38.8731Z" fill="url(#paint11_linear)"/>
<path d="M20.12 39.7009C21.6558 40.8173 24.1465 40.8173 25.6823 39.7009C27.2186 38.5842 27.2181 36.7739 25.6823 35.6576C24.1461 34.5409 21.6563 34.5409 20.12 35.6576C18.5842 36.774 18.5837 38.5842 20.12 39.7009V39.7009ZM25.0244 36.0759C26.1968 36.8482 26.1968 38.1006 25.0244 38.8729C23.8519 39.6451 21.951 39.6448 20.7785 38.8726C19.6061 38.1003 19.6056 36.8482 20.778 36.0759C21.9504 35.3036 23.8519 35.3036 25.0244 36.0759Z" fill="url(#paint12_linear)"/>
<path d="M46.8433 30.7825C49.2038 30.7825 51.1174 29.4342 51.1174 27.771C51.1174 26.1078 49.2038 24.7595 46.8433 24.7595C44.4827 24.7595 42.5692 26.1078 42.5692 27.771C42.5692 29.4342 44.4827 30.7825 46.8433 30.7825Z" fill="url(#paint13_linear)"/>
<path d="M46.3895 26.6341C46.7666 26.6341 47.0723 26.4289 47.0723 26.1758C47.0723 25.9227 46.7666 25.7175 46.3895 25.7175C46.0124 25.7175 45.7066 25.9227 45.7066 26.1758C45.7066 26.4289 46.0124 26.6341 46.3895 26.6341Z" fill="url(#paint14_linear)"/>
<path d="M45.1216 28.2562C45.4193 28.2562 45.6607 28.0485 45.6607 27.7923C45.6607 27.5361 45.4193 27.3284 45.1216 27.3284C44.8238 27.3284 44.5825 27.5361 44.5825 27.7923C44.5825 28.0485 44.8238 28.2562 45.1216 28.2562Z" fill="url(#paint15_linear)"/>
<path d="M47.4714 28.4945C47.6509 28.4945 47.7964 28.3926 47.7964 28.2669C47.7964 28.1412 47.6509 28.0393 47.4714 28.0393C47.2919 28.0393 47.1464 28.1412 47.1464 28.2669C47.1464 28.3926 47.2919 28.4945 47.4714 28.4945Z" fill="url(#paint16_linear)"/>
<path d="M29.0001 38C30.6569 38 32.0001 36.8807 32.0001 35.5C32.0001 34.1193 30.6569 33 29.0001 33C27.3432 33 26.0001 34.1193 26.0001 35.5C26.0001 36.8807 27.3432 38 29.0001 38Z" fill="url(#paint17_linear)"/>
<path d="M28.5 35C28.7761 35 29 34.7761 29 34.5C29 34.2239 28.7761 34 28.5 34C28.2239 34 28 34.2239 28 34.5C28 34.7761 28.2239 35 28.5 35Z" fill="url(#paint18_linear)"/>
<path d="M27.5 36C27.7761 36 28 35.7761 28 35.5C28 35.2239 27.7761 35 27.5 35C27.2239 35 27 35.2239 27 35.5C27 35.7761 27.2239 36 27.5 36Z" fill="url(#paint19_linear)"/>
<ellipse cx="37.9619" cy="31.0604" rx="3.7037" ry="2.31482" fill="#FFBC34"/>
<path d="M41.072 29.0443C39.2254 27.6519 36.2316 27.6519 34.385 29.0443C32.5384 30.4368 32.5384 32.6944 34.385 34.0869C36.2316 35.4794 39.2254 35.4794 41.072 34.0869C42.9186 32.6944 42.9186 30.4368 41.072 29.0443ZM35.6053 32.4722C34.4329 31.6999 34.4329 30.4475 35.6053 29.6752C36.7778 28.903 38.6787 28.9033 39.8512 29.6755C41.0237 30.4478 41.0241 31.6999 39.8517 32.4722C38.6792 33.2444 36.7778 33.2444 35.6053 32.4722Z" fill="url(#paint20_linear)"/>
<path d="M34.9473 33.3C36.4831 34.4164 38.9738 34.4164 40.5096 33.3C42.0459 32.1834 42.0454 30.3731 40.5096 29.2567C38.9734 28.14 36.4836 28.14 34.9473 29.2567C33.4115 30.3732 33.411 32.1834 34.9473 33.3ZM39.8516 29.6751C41.024 30.4474 41.024 31.6998 39.8516 32.4721C38.6791 33.2443 36.7782 33.244 35.6057 32.4718C34.4333 31.6995 34.4328 30.4474 35.6052 29.6751C36.7777 28.9028 38.6791 28.9028 39.8516 29.6751Z" fill="url(#paint21_linear)"/>
<path d="M29.2658 28.2798C31.6263 28.2798 33.5399 26.9315 33.5399 25.2683C33.5399 23.6051 31.6263 22.2568 29.2658 22.2568C26.9052 22.2568 24.9916 23.6051 24.9916 25.2683C24.9916 26.9315 26.9052 28.2798 29.2658 28.2798Z" fill="url(#paint22_linear)"/>
<path d="M28.812 24.1312C29.1891 24.1312 29.4948 23.9137 29.4948 23.6455C29.4948 23.3772 29.1891 23.1597 28.812 23.1597C28.4349 23.1597 28.1292 23.3772 28.1292 23.6455C28.1292 23.9137 28.4349 24.1312 28.812 24.1312Z" fill="url(#paint23_linear)"/>
<path d="M27.5441 25.7534C27.8418 25.7534 28.0832 25.6038 28.0832 25.4193C28.0832 25.2348 27.8418 25.0852 27.5441 25.0852C27.2463 25.0852 27.0049 25.2348 27.0049 25.4193C27.0049 25.6038 27.2463 25.7534 27.5441 25.7534Z" fill="url(#paint24_linear)"/>
<path d="M29.8921 25.9916C30.0715 25.9926 30.2176 25.8938 30.2184 25.7709C30.2191 25.648 30.0742 25.5474 29.8947 25.5464C29.7152 25.5453 29.5691 25.6441 29.5684 25.767C29.5677 25.89 29.7126 25.9905 29.8921 25.9916Z" fill="url(#paint25_linear)"/>
<path d="M36.058 14.2278C39.7249 15.6219 43.1926 17.6912 47.6348 20.954C52.077 24.2169 55.4944 29.102 58.03 32.2638C59.3921 33.9623 63.1422 33.6535 64.3806 31.7184C65.2076 30.4262 65.2101 27.8154 64.3674 26.6202C61.8809 23.0937 57.6937 18.951 52.5218 15.1521C47.3498 11.3531 42.2334 8.66235 38.2668 7.44892C36.9225 7.03765 35.4483 7.64108 34.6213 8.93333C33.383 10.8685 34.0883 13.479 36.058 14.2278V14.2278Z" fill="url(#paint26_linear)"/>
</g>
<defs>
<linearGradient id="paint0_linear" x1="36.8976" y1="33.3016" x2="39.5358" y2="39.0854" gradientUnits="userSpaceOnUse">
<stop stop-color="#FAA68E"/>
<stop offset="0.2061" stop-color="#FBA682"/>
<stop offset="0.5808" stop-color="#FDA861"/>
<stop offset="1" stop-color="#FFA936"/>
</linearGradient>
<linearGradient id="paint1_linear" x1="40.3991" y1="42.9575" x2="37.4304" y2="33.028" gradientUnits="userSpaceOnUse">
<stop stop-color="#F82814" stop-opacity="0"/>
<stop offset="0.2454" stop-color="#F12817" stop-opacity="0.245"/>
<stop offset="0.6052" stop-color="#DD2820" stop-opacity="0.605"/>
<stop offset="1" stop-color="#C0272D"/>
</linearGradient>
<linearGradient id="paint2_linear" x1="29.2221" y1="25.6839" x2="40.9714" y2="39.755" gradientUnits="userSpaceOnUse">
<stop stop-color="#FFD945"/>
<stop offset="0.3043" stop-color="#FFCD3E"/>
<stop offset="0.8558" stop-color="#FFAD2B"/>
<stop offset="1" stop-color="#FFA325"/>
</linearGradient>
<linearGradient id="paint3_linear" x1="45.4885" y1="24.9128" x2="49.657" y2="19.0029" gradientUnits="userSpaceOnUse">
<stop stop-color="#F85114" stop-opacity="0"/>
<stop offset="1" stop-color="#C06427"/>
</linearGradient>
<linearGradient id="paint4_linear" x1="39.1878" y1="24.1039" x2="40.1512" y2="26.4384" gradientUnits="userSpaceOnUse">
<stop stop-color="#BADA00"/>
<stop offset="0.2269" stop-color="#B0CE00"/>
<stop offset="0.6378" stop-color="#95AE00"/>
<stop offset="1" stop-color="#798C00"/>
</linearGradient>
<linearGradient id="paint5_linear" x1="36.2991" y1="23.786" x2="35.3802" y2="22.3519" gradientUnits="userSpaceOnUse">
<stop stop-color="#798C00" stop-opacity="0"/>
<stop offset="0.6542" stop-color="#556100" stop-opacity="0.654"/>
<stop offset="1" stop-color="#464F00"/>
</linearGradient>
<linearGradient id="paint6_linear" x1="24.0574" y1="29.8436" x2="25.0208" y2="32.1782" gradientUnits="userSpaceOnUse">
<stop stop-color="#BADA00"/>
<stop offset="0.2269" stop-color="#B0CE00"/>
<stop offset="0.6378" stop-color="#95AE00"/>
<stop offset="1" stop-color="#798C00"/>
</linearGradient>
<linearGradient id="paint7_linear" x1="38.5843" y1="34.1883" x2="37.6654" y2="32.7542" gradientUnits="userSpaceOnUse">
<stop stop-color="#798C00" stop-opacity="0"/>
<stop offset="0.6542" stop-color="#556100" stop-opacity="0.654"/>
<stop offset="1" stop-color="#464F00"/>
</linearGradient>
<linearGradient id="paint8_linear" x1="36.4188" y1="14.3487" x2="35.4998" y2="12.9146" gradientUnits="userSpaceOnUse">
<stop stop-color="#798C00" stop-opacity="0"/>
<stop offset="0.6542" stop-color="#556100" stop-opacity="0.654"/>
<stop offset="1" stop-color="#464F00"/>
</linearGradient>
<linearGradient id="paint9_linear" x1="37.2098" y1="15.7049" x2="35.481" y2="20.7501" gradientUnits="userSpaceOnUse">
<stop stop-color="#FFDECF"/>
<stop offset="0.3791" stop-color="#FDC4B0"/>
<stop offset="0.7655" stop-color="#FBAE97"/>
<stop offset="1" stop-color="#FAA68E"/>
</linearGradient>
<linearGradient id="paint10_linear" x1="34.9315" y1="22.1213" x2="36.3267" y2="18.0496" gradientUnits="userSpaceOnUse">
<stop stop-color="#FFDECF"/>
<stop offset="0.3791" stop-color="#FDC4B0"/>
<stop offset="0.7655" stop-color="#FBAE97"/>
<stop offset="1" stop-color="#FAA68E"/>
</linearGradient>
<linearGradient id="paint11_linear" x1="23.9889" y1="34.758" x2="22.5133" y2="39.0644" gradientUnits="userSpaceOnUse">
<stop stop-color="#FFDECF"/>
<stop offset="0.3791" stop-color="#FDC4B0"/>
<stop offset="0.7655" stop-color="#FBAE97"/>
<stop offset="1" stop-color="#FAA68E"/>
</linearGradient>
<linearGradient id="paint12_linear" x1="22.0497" y1="40.2339" x2="23.2406" y2="36.7585" gradientUnits="userSpaceOnUse">
<stop stop-color="#FFDECF"/>
<stop offset="0.3791" stop-color="#FDC4B0"/>
<stop offset="0.7655" stop-color="#FBAE97"/>
<stop offset="1" stop-color="#FAA68E"/>
</linearGradient>
<linearGradient id="paint13_linear" x1="45.9309" y1="25.5604" x2="47.7602" y2="29.9929" gradientUnits="userSpaceOnUse">
<stop stop-color="#FF6359"/>
<stop offset="0.2243" stop-color="#FE5B50"/>
<stop offset="0.5952" stop-color="#FC4637"/>
<stop offset="1" stop-color="#F82814"/>
</linearGradient>
<linearGradient id="paint14_linear" x1="46.8711" y1="26.8657" x2="45.9354" y2="24.6901" gradientUnits="userSpaceOnUse">
<stop stop-color="#F82814" stop-opacity="0"/>
<stop offset="0.2454" stop-color="#F12817" stop-opacity="0.245"/>
<stop offset="0.6052" stop-color="#DD2820" stop-opacity="0.605"/>
<stop offset="1" stop-color="#C0272D"/>
</linearGradient>
<linearGradient id="paint15_linear" x1="45.4845" y1="28.5189" x2="44.3812" y2="26.5181" gradientUnits="userSpaceOnUse">
<stop stop-color="#F82814" stop-opacity="0"/>
<stop offset="0.2454" stop-color="#F12817" stop-opacity="0.245"/>
<stop offset="0.6052" stop-color="#DD2820" stop-opacity="0.605"/>
<stop offset="1" stop-color="#C0272D"/>
</linearGradient>
<linearGradient id="paint16_linear" x1="47.6597" y1="28.666" x2="47.1815" y2="27.6004" gradientUnits="userSpaceOnUse">
<stop stop-color="#F82814" stop-opacity="0"/>
<stop offset="0.2454" stop-color="#F12817" stop-opacity="0.245"/>
<stop offset="0.6052" stop-color="#DD2820" stop-opacity="0.605"/>
<stop offset="1" stop-color="#C0272D"/>
</linearGradient>
<linearGradient id="paint17_linear" x1="28.3597" y1="33.6649" x2="30.0572" y2="37.1426" gradientUnits="userSpaceOnUse">
<stop stop-color="#FF6359"/>
<stop offset="0.2243" stop-color="#FE5B50"/>
<stop offset="0.5952" stop-color="#FC4637"/>
<stop offset="1" stop-color="#F82814"/>
</linearGradient>
<linearGradient id="paint18_linear" x1="28.8465" y1="35.257" x2="27.5689" y2="33.2632" gradientUnits="userSpaceOnUse">
<stop stop-color="#F82814" stop-opacity="0"/>
<stop offset="0.2454" stop-color="#F12817" stop-opacity="0.245"/>
<stop offset="0.6052" stop-color="#DD2820" stop-opacity="0.605"/>
<stop offset="1" stop-color="#C0272D"/>
</linearGradient>
<linearGradient id="paint19_linear" x1="27.8288" y1="36.2888" x2="26.5513" y2="34.2953" gradientUnits="userSpaceOnUse">
<stop stop-color="#F82814" stop-opacity="0"/>
<stop offset="0.2454" stop-color="#F12817" stop-opacity="0.245"/>
<stop offset="0.6052" stop-color="#DD2820" stop-opacity="0.605"/>
<stop offset="1" stop-color="#C0272D"/>
</linearGradient>
<linearGradient id="paint20_linear" x1="38.8136" y1="28.3582" x2="37.338" y2="32.6646" gradientUnits="userSpaceOnUse">
<stop stop-color="#FFDECF"/>
<stop offset="0.3791" stop-color="#FDC4B0"/>
<stop offset="0.7655" stop-color="#FBAE97"/>
<stop offset="1" stop-color="#FAA68E"/>
</linearGradient>
<linearGradient id="paint21_linear" x1="36.8744" y1="33.8341" x2="38.0653" y2="30.3587" gradientUnits="userSpaceOnUse">
<stop stop-color="#FFDECF"/>
<stop offset="0.3791" stop-color="#FDC4B0"/>
<stop offset="0.7655" stop-color="#FBAE97"/>
<stop offset="1" stop-color="#FAA68E"/>
</linearGradient>
<linearGradient id="paint22_linear" x1="28.3535" y1="23.0577" x2="30.1827" y2="27.4902" gradientUnits="userSpaceOnUse">
<stop stop-color="#FF6359"/>
<stop offset="0.2243" stop-color="#FE5B50"/>
<stop offset="0.5952" stop-color="#FC4637"/>
<stop offset="1" stop-color="#F82814"/>
</linearGradient>
<linearGradient id="paint23_linear" x1="29.2843" y1="24.3771" x2="28.253" y2="22.1148" gradientUnits="userSpaceOnUse">
<stop stop-color="#F82814" stop-opacity="0"/>
<stop offset="0.2454" stop-color="#F12817" stop-opacity="0.245"/>
<stop offset="0.6052" stop-color="#DD2820" stop-opacity="0.605"/>
<stop offset="1" stop-color="#C0272D"/>
</linearGradient>
<linearGradient id="paint24_linear" x1="27.8977" y1="25.9431" x2="27.2531" y2="24.3199" gradientUnits="userSpaceOnUse">
<stop stop-color="#F82814" stop-opacity="0"/>
<stop offset="0.2454" stop-color="#F12817" stop-opacity="0.245"/>
<stop offset="0.6052" stop-color="#DD2820" stop-opacity="0.605"/>
<stop offset="1" stop-color="#C0272D"/>
</linearGradient>
<linearGradient id="paint25_linear" x1="30.07" y1="26.1609" x2="29.6155" y2="25.1082" gradientUnits="userSpaceOnUse">
<stop stop-color="#F82814" stop-opacity="0"/>
<stop offset="0.2454" stop-color="#F12817" stop-opacity="0.245"/>
<stop offset="0.6052" stop-color="#DD2820" stop-opacity="0.605"/>
<stop offset="1" stop-color="#C0272D"/>
</linearGradient>
<linearGradient id="paint26_linear" x1="51.5492" y1="16.9775" x2="48.8678" y2="20.9542" gradientUnits="userSpaceOnUse">
<stop stop-color="#FFD945"/>
<stop offset="1" stop-color="#FFA936"/>
</linearGradient>
<clipPath id="clip0">
<rect width="50" height="50" fill="white" transform="translate(15 4)"/>
</clipPath>
</defs>
</svg>
