<svg width="80" height="56" viewBox="0 0 80 56" fill="none" xmlns="http://www.w3.org/2000/svg">
<path d="M53.2939 24.7239C70.2374 24.7239 60.7719 44.0853 61.0319 47.0997C61.0801 47.6595 60.6855 48.1597 60.13 48.2434C56.8384 48.7391 52.3984 49.043 47.513 49.043C43.1021 49.043 38.9809 48.7953 35.8136 48.3823C34.9639 48.2716 34.846 47.5758 35.1569 46.6165C35.1569 46.6165 36.3505 24.7239 53.2939 24.7239Z" fill="url(#paint0_linear)"/>
<path d="M53.2939 24.7239C70.2374 24.7239 60.7719 44.0853 61.0319 47.0997C61.0801 47.6595 60.6855 48.1597 60.13 48.2434C56.8384 48.7391 52.3984 49.043 47.513 49.043C43.1021 49.043 38.9809 48.7953 35.8136 48.3823C34.9639 48.2716 34.846 47.5758 35.1569 46.6165C35.1569 46.6165 36.3505 24.7239 53.2939 24.7239Z" fill="#FFAF2C"/>
<path d="M54.4677 24.7241C71.4111 24.7241 61.5055 44.0856 61.7654 47.1C61.8137 47.6597 61.4191 48.1599 60.8635 48.2436C57.572 48.7393 53.1319 49.0433 48.2465 49.0433C43.8356 49.0433 39.7878 48.7955 36.6205 48.3826C35.7708 48.2718 35.6529 47.576 35.9638 46.6167C35.9638 46.6167 37.5243 24.7241 54.4677 24.7241Z" fill="url(#paint1_linear)"/>
<path d="M54.4677 24.7241C71.4111 24.7241 61.5055 44.0856 61.7654 47.1C61.8137 47.6597 61.4191 48.1599 60.8635 48.2436C57.572 48.7393 53.1319 49.0433 48.2465 49.0433C43.8356 49.0433 39.7878 48.7955 36.6205 48.3826C35.7708 48.2718 35.6529 47.576 35.9638 46.6167C35.9638 46.6167 37.5243 24.7241 54.4677 24.7241Z" fill="url(#paint2_linear)"/>
<path d="M60.3418 26.228C74.8306 26.228 66.2769 44.0856 66.5369 47.1C66.5851 47.6597 66.1905 48.1599 65.635 48.2436C62.3434 48.7393 57.9033 49.0433 53.0179 49.0433C48.6071 49.0433 45.6773 48.7593 42.5099 48.3463C40.896 48.1359 40.7353 47.3926 40.7353 46.6167C40.7353 46.6167 45.8531 26.228 60.3418 26.228Z" fill="url(#paint3_linear)"/>
<path d="M60.3366 26.2278C74.8253 26.2278 66.2716 44.0853 66.5316 47.0998C66.5798 47.6595 66.1852 48.1597 65.6297 48.2434C62.3381 48.7391 57.8981 49.043 53.0127 49.043C48.6018 49.043 45.8606 48.9424 42.6933 48.5295C41.8436 48.4187 40.6025 47.9426 40.73 46.6165C40.73 46.6165 45.8478 26.2278 60.3366 26.2278Z" fill="url(#paint4_radial)"/>
<path d="M36.3842 48.3462L38.6584 48.603L41.5195 48.8231C41.9963 48.8964 42.3393 48.874 42.5099 48.8964C46.1412 49.1165 49.5553 49.0663 53.9663 49.0663C58.8516 49.0663 63.2916 48.7625 66.5832 48.2671C67.1388 48.1832 67.5334 47.6831 67.4853 47.1234C67.2254 44.1086 68.3554 37.7354 65.5085 27.9519C65.4212 27.6521 61.7159 25.8043 61.4736 25.6777L57.4755 28.6855L45.0041 30.006L36.3842 48.3462Z" fill="url(#paint5_linear)" fill-opacity="0.5"/>
<path d="M40.0379 47.7408C41.133 48.5961 42.4874 48.692 43.0631 47.955C43.6388 47.218 43.2178 45.9271 42.1227 45.0718C41.0277 44.2165 39.6353 42.3272 39.0596 43.0642C38.4839 43.8012 38.9429 46.8855 40.0379 47.7408Z" fill="#C4C4C4"/>
<path d="M40.0379 47.7408C41.133 48.5961 42.4874 48.692 43.0631 47.955C43.6388 47.218 43.2178 45.9271 42.1227 45.0718C41.0277 44.2165 39.6353 42.3272 39.0596 43.0642C38.4839 43.8012 38.9429 46.8855 40.0379 47.7408Z" fill="url(#paint6_linear)"/>
<path d="M63.7478 25.8612C67.3383 29.0414 44.8898 49.1422 41.2994 45.962C40.6803 45.4137 40.3601 44.3077 40.9326 42.8442C41.1406 42.3126 40.1898 40.3268 40.1394 39.7303L40.134 39.6663C40.0246 38.3692 40.6892 37.2201 41.8361 36.7236L41.837 36.7233C42.8167 36.2992 43.4567 35.3933 43.5443 34.3064L43.5526 34.203C43.6493 33.0047 44.4244 32.0402 45.565 31.699L45.6521 31.6729C46.6997 31.3595 47.4457 30.5175 47.6305 29.4398L47.6459 29.3495C47.8471 28.1761 48.7111 27.2902 49.8891 27.0498L50.0123 27.0246C51.0746 26.8077 51.8897 26.0634 52.183 25.0424C52.5268 23.8457 53.8923 23.858 55.1875 23.8103L55.2746 23.8071C55.8729 23.785 56.4594 23.8209 56.9619 23.5503C58.3456 22.8055 60.121 23.8456 60.74 24.3939L63.7478 25.8612Z" fill="url(#paint7_linear)"/>
<path d="M39.893 41.4404C40.1014 40.9085 40.1894 40.3265 40.1394 39.7302L40.134 39.666C40.0251 38.3694 40.6896 37.2202 41.8359 36.7235H41.8372C42.8165 36.2993 43.4566 35.3931 43.5446 34.3063L43.5527 34.2034C43.6495 33.0049 44.4244 32.0399 45.5653 31.6988L45.6519 31.6731C46.6995 31.3598 47.4459 30.5173 47.6307 29.4399L47.6463 29.3499C47.7721 28.6136 48.1592 27.991 48.7209 27.5701C48.2749 28.8227 48.553 30.275 49.5553 31.2772L53.2019 34.9237C48.0965 40.8702 43.548 47.5555 41.6663 45.8886C41.0478 45.3405 39.3205 42.9035 39.893 41.4404Z" fill="url(#paint8_linear)"/>
<path d="M56.9253 26.3746C55.9934 26.3746 55.238 25.6192 55.238 24.6873C55.238 23.7554 55.9934 23 56.9253 23C57.8571 23 58.6126 23.7554 58.6126 24.6873C58.6126 25.6192 57.8571 26.3746 56.9253 26.3746Z" fill="url(#paint9_linear)"/>
<path d="M45.0332 37.531C43.6569 37.531 42.5412 36.4153 42.5412 35.039C42.5412 33.6628 43.6569 32.5471 45.0332 32.5471C46.4094 32.5471 47.5251 33.6628 47.5251 35.039C47.5251 36.4153 46.4094 37.531 45.0332 37.531Z" fill="url(#paint10_linear)"/>
<path d="M39.6494 41.6357C40.9023 40.3828 42.9337 40.3828 44.1866 41.6357C45.4394 42.8886 45.4394 44.92 44.1866 46.1729C42.9337 47.4258 40.9023 47.4258 39.6494 46.1729C38.3965 44.92 38.3965 42.8886 39.6494 41.6357ZM43.3586 45.3449C44.1541 44.5494 44.1541 43.2592 43.3586 42.4637C42.563 41.6682 41.2732 41.6685 40.4777 42.464C39.6822 43.2596 39.6818 44.5494 40.4774 45.3449C41.2729 46.1404 42.563 46.1404 43.3586 45.3449V45.3449Z" fill="url(#paint11_linear)"/>
<path d="M43.805 45.7912C42.763 46.8333 41.073 46.8333 40.0309 45.7912C38.9886 44.7489 38.9889 43.0592 40.0309 42.0171C41.0733 40.9748 42.7627 40.9748 43.805 42.0171C44.8471 43.0592 44.8474 44.7489 43.805 45.7912ZM40.4774 42.4636C39.6819 43.2591 39.6819 44.5492 40.4774 45.3448C41.2729 46.1403 42.5628 46.14 43.3583 45.3444C44.1537 44.5489 44.1541 43.259 43.3586 42.4636C42.5631 41.6681 41.2729 41.6681 40.4774 42.4636V42.4636Z" fill="url(#paint12_linear)"/>
<path d="M46.4414 28.2055C47.8287 26.8182 50.0779 26.8182 51.4652 28.2055C52.8524 29.5927 52.8524 31.8419 51.4652 33.2292C50.0779 34.6164 47.8287 34.6164 46.4414 33.2292C45.0542 31.8419 45.0542 29.5927 46.4414 28.2055V28.2055ZM50.5484 32.3124C51.4292 31.4316 51.4292 30.0031 50.5484 29.1222C49.6675 28.2414 48.2393 28.2418 47.3586 29.1226C46.4777 30.0035 46.4774 31.4316 47.3582 32.3125C48.2391 33.1932 49.6675 33.1932 50.5484 32.3124Z" fill="url(#paint13_linear)"/>
<path d="M51.0427 32.8066C49.8889 33.9604 48.0177 33.9604 46.8639 32.8066C45.7097 31.6525 45.7101 29.7816 46.8639 28.6278C48.018 27.4737 49.8886 27.4737 51.0427 28.6278C52.1965 29.7816 52.1968 31.6525 51.0427 32.8066ZM47.3582 29.1221C46.4774 30.003 46.4774 31.4315 47.3582 32.3123C48.239 33.1931 49.6672 33.1928 50.548 32.3119C51.4288 31.4311 51.4292 30.0029 50.5484 29.1221C49.6675 28.2413 48.239 28.2413 47.3582 29.1221Z" fill="url(#paint14_linear)"/>
<path d="M42.114 43.2381L41.6039 42.7727C40.8659 42.0993 40.7624 40.9108 41.3622 39.8857C42.7045 37.5916 44.7346 34.1894 47.6818 30.9598C50.6289 27.7301 53.9174 25.572 56.5218 24.6874C57.4879 23.9965 59.4884 23.7205 60.2265 24.394L61.4002 24.8708C61.7661 25.2047 59.6783 25.2528 59.1866 25.572C56.9748 27.0078 53.7598 29.8824 50.4804 33.4762C47.2009 37.07 44.6318 40.5341 43.404 42.8677C43.131 43.3865 42.4798 43.572 42.114 43.2381Z" fill="url(#paint15_linear)"/>
<path d="M58.4607 25.6052C57.3223 27.0544 55.7802 28.134 54.0289 28.7078C53.737 28.8034 53.4487 28.5533 53.502 28.2509L54.0174 25.3295C54.1228 24.7319 54.6928 24.3329 55.2904 24.4383L58.2117 24.9537C58.5141 25.0071 58.6504 25.3637 58.4607 25.6052V25.6052Z" fill="url(#paint16_linear)"/>
<path d="M65.1784 26.778C67.0118 28.402 44.3801 48.026 42.5466 46.402C42.2305 46.122 41.0711 44.4618 41.842 43.1741C42.1221 42.7064 41.722 41.9335 41.8304 41.4775L41.842 41.4286C42.0777 40.4371 42.8391 39.3738 43.7921 38.7057L43.7928 38.7051C44.6068 38.1344 45.2914 37.2678 45.619 36.3935L45.6502 36.3104C46.0113 35.3464 46.188 33.7469 47.0987 33.202L47.1683 33.1604C48.0047 32.66 49.3709 32.4722 49.7667 31.5815L49.7998 31.5069C50.2308 30.537 51.073 29.6319 51.9864 29.1571L52.082 29.1073C52.9056 28.6791 53.678 27.8969 54.1389 27.0243C54.679 26.0016 56.3772 25.993 57.3288 25.6409C57.7683 25.4783 58.2458 25.3929 59.0527 24.766C59.3994 24.4967 60.1471 24.439 60.9082 24.5438C62.4891 24.7616 63.7914 25.9888 65.1784 26.778V26.778Z" fill="url(#paint17_linear)"/>
<path d="M61.8039 26.2278C76.2926 26.2278 67.7389 44.0853 67.9989 47.0998C68.0471 47.6595 67.6525 48.1597 67.097 48.2434C63.8054 48.7391 59.3654 49.043 54.48 49.043C50.0691 49.043 45.824 48.9424 42.6567 48.5295C41.807 48.4187 41.8864 47.5758 42.1973 46.6165C42.1973 46.6165 47.3151 26.2278 61.8039 26.2278Z" fill="url(#paint18_linear)"/>
<path d="M67.9989 47.1464C68.0471 47.7061 67.6525 48.2063 67.097 48.29C63.8054 48.7857 59.3653 49.0897 54.4799 49.0897C50.069 49.0897 45.8607 48.9791 42.6934 48.5661C41.8437 48.4553 41.7764 47.7591 42.1973 46.6631V46.6631C42.8933 44.1711 43.8299 41.7198 44.9676 39.396V39.396L69.5801 39.6528C69.0666 42.9907 67.895 45.9423 67.9989 47.1464Z" fill="url(#paint19_linear)" fill-opacity="0.75"/>
<g opacity="0.6">
<g opacity="0.6">
<path opacity="0.6" d="M60.0933 29.422C59.7783 29.422 59.5229 29.1666 59.5229 28.8515C59.5229 28.5364 59.7783 28.281 60.0933 28.281C60.4084 28.281 60.6638 28.5364 60.6638 28.8515C60.6638 29.1666 60.4084 29.422 60.0933 29.422Z" fill="url(#paint20_linear)"/>
<path opacity="0.6" d="M61.8235 29.8536C61.5747 29.8536 61.3731 29.652 61.3731 29.4032C61.3731 29.1545 61.5747 28.9529 61.8235 28.9529C62.0722 28.9529 62.2738 29.1545 62.2738 29.4032C62.2738 29.652 62.0722 29.8536 61.8235 29.8536Z" fill="url(#paint21_linear)"/>
<path opacity="0.6" d="M60.474 31.1494C60.3241 31.1494 60.2026 31.0278 60.2026 30.8779C60.2026 30.728 60.3241 30.6064 60.474 30.6064C60.624 30.6064 60.7455 30.728 60.7455 30.8779C60.7455 31.0278 60.624 31.1494 60.474 31.1494Z" fill="url(#paint22_linear)"/>
</g>
<g opacity="0.6">
<path opacity="0.6" d="M63.9433 45.3507C63.6283 45.3507 63.3729 45.0953 63.3729 44.7802C63.3729 44.4651 63.6283 44.2097 63.9433 44.2097C64.2584 44.2097 64.5138 44.4651 64.5138 44.7802C64.5138 45.0953 64.2584 45.3507 63.9433 45.3507Z" fill="url(#paint23_linear)"/>
<path opacity="0.6" d="M63.8406 47.0435C63.5919 47.0435 63.3903 46.8419 63.3903 46.5932C63.3903 46.3445 63.5919 46.1428 63.8406 46.1428C64.0894 46.1428 64.291 46.3445 64.291 46.5932C64.291 46.8419 64.0894 47.0435 63.8406 47.0435Z" fill="url(#paint24_linear)"/>
<path opacity="0.6" d="M62.076 45.9255C61.9261 45.9255 61.8045 45.804 61.8045 45.654C61.8045 45.5041 61.9261 45.3826 62.076 45.3826C62.2259 45.3826 62.3475 45.5041 62.3475 45.654C62.3475 45.804 62.2259 45.9255 62.076 45.9255Z" fill="url(#paint25_linear)"/>
</g>
<g opacity="0.6">
<path opacity="0.6" d="M57.9297 31.4182C57.6969 31.4182 57.5082 31.2295 57.5082 30.9967C57.5082 30.7639 57.6969 30.5752 57.9297 30.5752C58.1625 30.5752 58.3512 30.7639 58.3512 30.9967C58.3512 31.2295 58.1625 31.4182 57.9297 31.4182Z" fill="url(#paint26_linear)"/>
<path opacity="0.6" d="M59.0853 30.6482C58.9015 30.6482 58.7525 30.4992 58.7525 30.3154C58.7525 30.1316 58.9015 29.9827 59.0853 29.9827C59.2691 29.9827 59.418 30.1316 59.418 30.3154C59.418 30.4992 59.2691 30.6482 59.0853 30.6482Z" fill="url(#paint27_linear)"/>
<path opacity="0.6" d="M59.2331 31.9857C59.1223 31.9857 59.0325 31.8959 59.0325 31.7851C59.0325 31.6743 59.1223 31.5845 59.2331 31.5845C59.3439 31.5845 59.4337 31.6743 59.4337 31.7851C59.4337 31.8959 59.3439 31.9857 59.2331 31.9857Z" fill="url(#paint28_linear)"/>
</g>
<g opacity="0.6">
<path opacity="0.6" d="M48.2576 46.3877C48.0248 46.3877 47.8361 46.199 47.8361 45.9662C47.8361 45.7334 48.0248 45.5447 48.2576 45.5447C48.4904 45.5447 48.6791 45.7334 48.6791 45.9662C48.6791 46.199 48.4904 46.3877 48.2576 46.3877Z" fill="url(#paint29_linear)"/>
<path opacity="0.6" d="M49.4131 45.6179C49.2294 45.6179 49.0804 45.4689 49.0804 45.2851C49.0804 45.1014 49.2294 44.9524 49.4131 44.9524C49.5969 44.9524 49.7459 45.1014 49.7459 45.2851C49.7459 45.4689 49.5969 45.6179 49.4131 45.6179Z" fill="url(#paint30_linear)"/>
<path opacity="0.6" d="M49.5611 46.9554C49.4503 46.9554 49.3605 46.8656 49.3605 46.7548C49.3605 46.644 49.4503 46.5542 49.5611 46.5542C49.6719 46.5542 49.7617 46.644 49.7617 46.7548C49.7617 46.8656 49.6719 46.9554 49.5611 46.9554Z" fill="url(#paint31_linear)"/>
</g>
</g>
<path d="M30.1848 24.7932C11.0389 24.7932 21.7348 46.6715 21.441 50.0778C21.3865 50.7103 21.8324 51.2755 22.4602 51.37C26.1796 51.9302 31.1968 52.2737 36.7173 52.2737C41.7016 52.2737 46.3585 51.9937 49.9375 51.5271C50.8977 51.4019 51.0309 50.6157 50.6795 49.5317C50.6795 49.5317 49.3308 24.7932 30.1848 24.7932Z" fill="url(#paint32_linear)"/>
<path d="M30.1848 24.7932C11.0389 24.7932 21.7348 46.6715 21.441 50.0778C21.3865 50.7103 21.8324 51.2755 22.4602 51.37C26.1796 51.9302 31.1968 52.2737 36.7173 52.2737C41.7016 52.2737 46.3585 51.9937 49.9375 51.5271C50.8977 51.4019 51.0309 50.6157 50.6795 49.5317C50.6795 49.5317 49.3308 24.7932 30.1848 24.7932Z" fill="#FFAF2C"/>
<path d="M28.8585 24.7932C9.71251 24.7932 20.9058 46.6715 20.6121 50.0778C20.5575 50.7103 21.0035 51.2755 21.6312 51.37C25.3506 51.9302 30.3679 52.2737 35.8883 52.2737C40.8726 52.2737 45.4466 51.9937 49.0257 51.5271C49.9858 51.4019 50.119 50.6157 49.7677 49.5317C49.7677 49.5317 48.0044 24.7932 28.8585 24.7932Z" fill="url(#paint33_linear)"/>
<path d="M28.8585 24.7932C9.71251 24.7932 20.9058 46.6715 20.6121 50.0778C20.5575 50.7103 21.0035 51.2755 21.6312 51.37C25.3506 51.9302 30.3679 52.2737 35.8883 52.2737C40.8726 52.2737 45.4466 51.9937 49.0257 51.5271C49.9858 51.4019 50.119 50.6157 49.7677 49.5317C49.7677 49.5317 48.0044 24.7932 28.8585 24.7932Z" fill="url(#paint34_linear)"/>
<path d="M22.2208 26.4924C5.84863 26.4924 15.5142 46.6713 15.2205 50.0776C15.1659 50.7101 15.6119 51.2753 16.2396 51.3699C19.9591 51.93 24.9763 52.2735 30.4967 52.2735C35.481 52.2735 38.7916 51.9525 42.3707 51.4859C44.1944 51.2481 44.376 50.4083 44.376 49.5315C44.376 49.5315 38.593 26.4924 22.2208 26.4924Z" fill="url(#paint35_linear)"/>
<path d="M22.2266 26.4924C5.85445 26.4924 15.5201 46.6713 15.2263 50.0776C15.1718 50.7101 15.6177 51.2753 16.2454 51.3699C19.9649 51.93 24.9821 52.2735 30.5026 52.2735C35.4868 52.2735 38.5843 52.1598 42.1634 51.6932C43.1235 51.568 44.526 51.03 44.3819 49.5315C44.3819 49.5315 38.5988 26.4924 22.2266 26.4924Z" fill="url(#paint36_radial)"/>
<path d="M49.2926 51.4861L46.7228 51.7762L43.4898 52.0249C42.9509 52.1078 42.5634 52.0825 42.3707 52.1078C38.2673 52.3565 34.4094 52.2998 29.425 52.2998C23.9046 52.2998 18.8874 51.9564 15.168 51.3967C14.5401 51.3019 14.0943 50.7367 14.1487 50.1043C14.4423 46.6976 13.1654 39.4959 16.3824 28.4407C16.481 28.1019 20.6679 26.0138 20.9417 25.8708L25.4596 29.2696L39.5522 30.7618L49.2926 51.4861Z" fill="url(#paint37_linear)" fill-opacity="0.5"/>
<path d="M45.1639 50.8021C43.9266 51.7686 42.3961 51.8769 41.7456 51.0441C41.0951 50.2113 41.5708 48.7526 42.8081 47.7861C44.0455 46.8196 45.6189 44.6847 46.2694 45.5175C46.92 46.3504 46.4013 49.8356 45.1639 50.8021Z" fill="#C4C4C4"/>
<path d="M45.1639 50.8021C43.9266 51.7686 42.3961 51.8769 41.7456 51.0441C41.0951 50.2113 41.5708 48.7526 42.8081 47.7861C44.0455 46.8196 45.6189 44.6847 46.2694 45.5175C46.92 46.3504 46.4013 49.8356 45.1639 50.8021Z" fill="url(#paint38_linear)"/>
<path d="M18.3719 26.0781C14.3147 29.6718 39.6813 52.3855 43.7384 48.7919C44.438 48.1723 44.7998 46.9225 44.1529 45.2688C43.9179 44.6681 44.9923 42.4242 45.0493 41.7501L45.0553 41.6778C45.1789 40.2121 44.4279 38.9136 43.132 38.3526L43.131 38.3522C42.0239 37.873 41.3007 36.8493 41.2017 35.6212L41.1923 35.5043C41.0831 34.1502 40.2072 33.0604 38.9184 32.6748L38.8199 32.6453C37.6362 32.2912 36.7932 31.3397 36.5844 30.1219L36.5669 30.0199C36.3396 28.6939 35.3633 27.6929 34.0321 27.4212L33.8929 27.3928C32.6925 27.1477 31.7715 26.3066 31.4401 25.1529C31.0516 23.8006 29.5085 23.8146 28.045 23.7606L27.9465 23.757C27.2705 23.7321 26.6078 23.7726 26.0399 23.4668C24.4763 22.6252 22.4702 23.8006 21.7707 24.4201L18.3719 26.0781Z" fill="url(#paint39_linear)"/>
<path d="M45.3277 43.6824C45.0922 43.0813 44.9928 42.4237 45.0494 41.7499L45.0554 41.6773C45.1785 40.2122 44.4276 38.9136 43.1323 38.3524H43.1308C42.0242 37.8729 41.3009 36.849 41.2014 35.6209L41.1923 35.5046C41.0829 34.1503 40.2073 33.0599 38.918 32.6745L38.8202 32.6454C37.6364 32.2914 36.793 31.3393 36.5842 30.1219L36.5666 30.0202C36.4244 29.1882 35.987 28.4846 35.3523 28.009C35.8562 29.4245 35.542 31.0655 34.4094 32.198L30.2888 36.3186C36.0579 43.0381 41.1976 50.5924 43.324 48.7089C44.0228 48.0895 45.9746 45.3357 45.3277 43.6824Z" fill="url(#paint40_linear)"/>
<path d="M26.0814 26.6582C27.1344 26.6582 27.988 25.8046 27.988 24.7516C27.988 23.6986 27.1344 22.845 26.0814 22.845C25.0284 22.845 24.1747 23.6986 24.1747 24.7516C24.1747 25.8046 25.0284 26.6582 26.0814 26.6582Z" fill="url(#paint41_linear)"/>
<path d="M35.9461 32.3782C36.9991 32.3782 37.8528 31.5246 37.8528 30.4716C37.8528 29.4186 36.9991 28.5649 35.9461 28.5649C34.8931 28.5649 34.0395 29.4186 34.0395 30.4716C34.0395 31.5246 34.8931 32.3782 35.9461 32.3782Z" fill="url(#paint42_linear)"/>
<path d="M42.6194 49.3722C44.1531 49.3722 45.3964 48.1289 45.3964 46.5952C45.3964 45.0614 44.1531 43.8181 42.6194 43.8181C41.0856 43.8181 39.8423 45.0614 39.8423 46.5952C39.8423 48.1289 41.0856 49.3722 42.6194 49.3722Z" fill="url(#paint43_linear)"/>
<path d="M39.5195 40.1051C41.5387 40.1051 43.1757 38.4682 43.1757 36.4489C43.1757 34.4297 41.5387 32.7927 39.5195 32.7927C37.5002 32.7927 35.8633 34.4297 35.8633 36.4489C35.8633 38.4682 37.5002 40.1051 39.5195 40.1051Z" fill="url(#paint44_linear)"/>
<path d="M44.6761 38.3014C43.1085 36.7338 40.5669 36.7338 38.9993 38.3014C37.4318 39.869 37.4318 42.4106 38.9993 43.9782C40.5669 45.5457 43.1085 45.5457 44.6761 43.9782C46.2437 42.4106 46.2437 39.869 44.6761 38.3014ZM40.0353 42.9422C39.04 41.9469 39.04 40.3327 40.0353 39.3374C41.0306 38.342 42.6445 38.3424 43.6397 39.3378C44.6351 40.3331 44.6355 41.947 43.6402 42.9422C42.6448 43.9376 41.0306 43.9376 40.0353 42.9422V42.9422Z" fill="url(#paint45_linear)"/>
<path d="M39.4767 43.5007C40.7805 44.8045 42.895 44.8045 44.1987 43.5007C45.5029 42.1965 45.5025 40.0824 44.1987 38.7787C42.8945 37.4745 40.7809 37.4745 39.4767 38.7787C38.1729 40.0824 38.1725 42.1965 39.4767 43.5007ZM43.6401 39.3373C44.6355 40.3326 44.6355 41.9468 43.6401 42.9421C42.6448 43.9374 41.031 43.937 40.0357 42.9417C39.0404 41.9464 39.0399 40.3325 40.0353 39.3373C41.0306 38.3419 42.6448 38.3419 43.6401 39.3373V39.3373Z" fill="url(#paint46_linear)"/>
<path d="M34.4095 26.5211C32.8419 24.9536 30.3003 24.9536 28.7327 26.5211C27.1652 28.0887 27.1652 30.6303 28.7327 32.1979C30.3003 33.7655 32.8419 33.7655 34.4095 32.1979C35.9771 30.6303 35.9771 28.0887 34.4095 26.5211V26.5211ZM29.7687 31.1619C28.7734 30.1666 28.7734 28.5524 29.7687 27.5571C30.764 26.5618 32.3779 26.5622 33.3731 27.5575C34.3685 28.5528 34.3689 30.1667 33.3736 31.162C32.3782 32.1573 30.764 32.1573 29.7687 31.1619Z" fill="url(#paint47_linear)"/>
<path d="M29.2101 31.7204C30.5138 33.0242 32.6283 33.0242 33.9321 31.7204C35.2363 30.4162 35.2359 28.3022 33.9321 26.9984C32.6279 25.6942 30.5142 25.6942 29.2101 26.9984C27.9063 28.3022 27.9059 30.4162 29.2101 31.7204ZM33.3735 27.557C34.3688 28.5523 34.3688 30.1665 33.3735 31.1618C32.3782 32.1572 30.7643 32.1568 29.7691 31.1614C28.7737 30.1661 28.7733 28.5522 29.7686 27.557C30.764 26.5616 32.3782 26.5616 33.3735 27.557Z" fill="url(#paint48_linear)"/>
<path d="M42.818 45.7138L43.3943 45.1879C44.2283 44.4269 44.3453 43.084 43.6675 41.9256C42.1507 39.3332 39.8566 35.4888 36.5264 31.8394C33.1962 28.1899 29.4802 25.7513 26.5373 24.7516C25.4456 23.9709 23.185 23.659 22.351 24.4201L21.0247 24.9589C20.6112 25.3361 22.9704 25.3905 23.5261 25.7513C26.0253 27.3737 29.6583 30.6219 33.3641 34.6829C37.0698 38.7439 39.9728 42.6583 41.3603 45.2953C41.6687 45.8815 42.4046 46.091 42.818 45.7138Z" fill="url(#paint49_linear)"/>
<path d="M24.3463 25.7886C25.6327 27.4262 27.3753 28.6462 29.3542 29.2945C29.684 29.4025 30.0099 29.1199 29.9496 28.7782L29.3672 25.4771C29.2481 24.8018 28.604 24.3509 27.9287 24.4701L24.6277 25.0524C24.286 25.1128 24.132 25.5157 24.3463 25.7886V25.7886Z" fill="url(#paint50_linear)"/>
<path d="M16.7555 27.1141C14.6836 28.9493 40.2573 51.1242 42.3292 49.2891C42.6864 48.9727 43.9965 47.0967 43.1254 45.6416C42.8089 45.1131 43.261 44.2397 43.1385 43.7244L43.1254 43.6692C42.859 42.5488 41.9986 41.3473 40.9218 40.5923L40.921 40.5917C40.0011 39.9467 39.2276 38.9675 38.8574 37.9796L38.8222 37.8857C38.4141 36.7964 38.2144 34.9889 37.1853 34.3732L37.1067 34.3262C36.1615 33.7608 34.6178 33.5485 34.1706 32.542L34.1331 32.4577C33.6461 31.3618 32.6944 30.3391 31.6622 29.8024L31.5543 29.7463C30.6235 29.2623 29.7508 28.3785 29.23 27.3925C28.6196 26.2368 26.7007 26.227 25.6255 25.8292C25.1288 25.6455 24.5892 25.549 23.6774 24.8406C23.2857 24.5363 22.4407 24.471 21.5807 24.5895C19.7943 24.8356 18.3228 26.2224 16.7555 27.1141V27.1141Z" fill="url(#paint51_linear)"/>
<path d="M20.5687 26.4924C4.19656 26.4924 13.8622 46.6713 13.5684 50.0776C13.5139 50.7101 13.9598 51.2753 14.5875 51.3699C18.307 51.93 23.3242 52.2735 28.8447 52.2735C33.8289 52.2735 38.6258 52.1598 42.2049 51.6932C43.165 51.568 43.0753 50.6155 42.724 49.5315C42.724 49.5315 36.9409 26.4924 20.5687 26.4924Z" fill="url(#paint52_linear)"/>
<path d="M13.5684 50.1304C13.5139 50.7629 13.9598 51.3282 14.5876 51.4227C18.307 51.9829 23.3243 52.3263 28.8447 52.3263C33.8291 52.3263 38.5844 52.2013 42.1634 51.7347C43.1236 51.6095 43.1997 50.8228 42.724 49.5843V49.5843C41.9375 46.7684 40.8792 43.9984 39.5936 41.3726V41.3726L11.7816 41.6627C12.3619 45.4345 13.6858 48.7698 13.5684 50.1304Z" fill="url(#paint53_linear)" fill-opacity="0.75"/>
<g opacity="0.6">
<g opacity="0.6">
<path opacity="0.6" d="M22.5015 30.102C22.8576 30.102 23.1462 29.8134 23.1462 29.4574C23.1462 29.1014 22.8576 28.8127 22.5015 28.8127C22.1455 28.8127 21.8569 29.1014 21.8569 29.4574C21.8569 29.8134 22.1455 30.102 22.5015 30.102Z" fill="url(#paint54_linear)"/>
<path opacity="0.6" d="M20.5464 30.5893C20.8275 30.5893 21.0553 30.3615 21.0553 30.0804C21.0553 29.7994 20.8275 29.5715 20.5464 29.5715C20.2653 29.5715 20.0375 29.7994 20.0375 30.0804C20.0375 30.3615 20.2653 30.5893 20.5464 30.5893Z" fill="url(#paint55_linear)"/>
<path opacity="0.6" d="M22.0713 32.0537C22.2407 32.0537 22.3781 31.9164 22.3781 31.7469C22.3781 31.5775 22.2407 31.4402 22.0713 31.4402C21.9019 31.4402 21.7646 31.5775 21.7646 31.7469C21.7646 31.9164 21.9019 32.0537 22.0713 32.0537Z" fill="url(#paint56_linear)"/>
</g>
<g opacity="0.6">
<path opacity="0.6" d="M18.151 48.1013C18.5071 48.1013 18.7957 47.8127 18.7957 47.4567C18.7957 47.1006 18.5071 46.812 18.151 46.812C17.795 46.812 17.5064 47.1006 17.5064 47.4567C17.5064 47.8127 17.795 48.1013 18.151 48.1013Z" fill="url(#paint57_linear)"/>
<path opacity="0.6" d="M18.2671 50.0141C18.5482 50.0141 18.776 49.7863 18.776 49.5052C18.776 49.2242 18.5482 48.9963 18.2671 48.9963C17.9861 48.9963 17.7582 49.2242 17.7582 49.5052C17.7582 49.7863 17.9861 50.0141 18.2671 50.0141Z" fill="url(#paint58_linear)"/>
<path opacity="0.6" d="M20.2611 48.7507C20.4306 48.7507 20.5679 48.6134 20.5679 48.444C20.5679 48.2745 20.4306 48.1372 20.2611 48.1372C20.0917 48.1372 19.9544 48.2745 19.9544 48.444C19.9544 48.6134 20.0917 48.7507 20.2611 48.7507Z" fill="url(#paint59_linear)"/>
</g>
<g opacity="0.6">
<path opacity="0.6" d="M24.9463 32.3576C25.2094 32.3576 25.4226 32.1444 25.4226 31.8813C25.4226 31.6183 25.2094 31.405 24.9463 31.405C24.6833 31.405 24.4701 31.6183 24.4701 31.8813C24.4701 32.1444 24.6833 32.3576 24.9463 32.3576Z" fill="url(#paint60_linear)"/>
<path opacity="0.6" d="M23.6399 31.4876C23.8475 31.4876 24.0159 31.3193 24.0159 31.1116C24.0159 30.9039 23.8475 30.7356 23.6399 30.7356C23.4322 30.7356 23.2639 30.9039 23.2639 31.1116C23.2639 31.3193 23.4322 31.4876 23.6399 31.4876Z" fill="url(#paint61_linear)"/>
<path opacity="0.6" d="M23.4734 32.999C23.5986 32.999 23.7001 32.8976 23.7001 32.7724C23.7001 32.6472 23.5986 32.5457 23.4734 32.5457C23.3482 32.5457 23.2467 32.6472 23.2467 32.7724C23.2467 32.8976 23.3482 32.999 23.4734 32.999Z" fill="url(#paint62_linear)"/>
</g>
<g opacity="0.6">
<path opacity="0.6" d="M35.8758 49.2729C36.1389 49.2729 36.3521 49.0596 36.3521 48.7966C36.3521 48.5336 36.1389 48.3203 35.8758 48.3203C35.6128 48.3203 35.3995 48.5336 35.3995 48.7966C35.3995 49.0596 35.6128 49.2729 35.8758 49.2729Z" fill="url(#paint63_linear)"/>
<path opacity="0.6" d="M34.5694 48.4029C34.7771 48.4029 34.9454 48.2345 34.9454 48.0269C34.9454 47.8192 34.7771 47.6509 34.5694 47.6509C34.3618 47.6509 34.1934 47.8192 34.1934 48.0269C34.1934 48.2345 34.3618 48.4029 34.5694 48.4029Z" fill="url(#paint64_linear)"/>
<path opacity="0.6" d="M34.4029 49.9143C34.5281 49.9143 34.6296 49.8128 34.6296 49.6876C34.6296 49.5624 34.5281 49.4609 34.4029 49.4609C34.2777 49.4609 34.1762 49.5624 34.1762 49.6876C34.1762 49.8128 34.2777 49.9143 34.4029 49.9143Z" fill="url(#paint65_linear)"/>
</g>
</g>
<defs>
<linearGradient id="paint0_linear" x1="56.5099" y1="30.7451" x2="45.2762" y2="52.5359" gradientUnits="userSpaceOnUse">
<stop stop-color="#FFD945"/>
<stop offset="0.3043" stop-color="#FFCD3E"/>
<stop offset="0.8558" stop-color="#FFAD2B"/>
<stop offset="1" stop-color="#FFA325"/>
</linearGradient>
<linearGradient id="paint1_linear" x1="57.2434" y1="30.7453" x2="46.0098" y2="52.5361" gradientUnits="userSpaceOnUse">
<stop stop-color="#FFD945"/>
<stop offset="0.3043" stop-color="#FFCD3E"/>
<stop offset="0.8558" stop-color="#FFAD2B"/>
<stop offset="1" stop-color="#FFA325"/>
</linearGradient>
<linearGradient id="paint2_linear" x1="49.2591" y1="36.095" x2="42.9867" y2="33.0139" gradientUnits="userSpaceOnUse">
<stop stop-color="#E85122"/>
<stop offset="1" stop-color="#FF8053" stop-opacity="0"/>
</linearGradient>
<linearGradient id="paint3_linear" x1="62.0149" y1="30.7454" x2="50.7812" y2="52.5361" gradientUnits="userSpaceOnUse">
<stop stop-color="#FFD945"/>
<stop offset="0.3043" stop-color="#FFCD3E"/>
<stop offset="0.8558" stop-color="#FFAD2B"/>
<stop offset="1" stop-color="#FFA325"/>
</linearGradient>
<radialGradient id="paint4_radial" cx="0" cy="0" r="1" gradientUnits="userSpaceOnUse" gradientTransform="translate(39.392 32.17) rotate(18.1124) scale(26.7834)">
<stop stop-color="#F82814" stop-opacity="0"/>
<stop offset="0.2918" stop-color="#EC2819" stop-opacity="0.292"/>
<stop offset="0.8165" stop-color="#CD2727" stop-opacity="0.817"/>
<stop offset="1" stop-color="#C0272D"/>
</radialGradient>
<linearGradient id="paint5_linear" x1="50.7402" y1="35.2814" x2="53.2453" y2="37.7864" gradientUnits="userSpaceOnUse">
<stop stop-color="#F82814" stop-opacity="0"/>
<stop offset="0.2918" stop-color="#EC2819" stop-opacity="0.292"/>
<stop offset="0.8165" stop-color="#CD2727" stop-opacity="0.817"/>
<stop offset="1" stop-color="#C0272D"/>
</linearGradient>
<linearGradient id="paint6_linear" x1="38.5117" y1="42.1104" x2="43.2192" y2="44.0359" gradientUnits="userSpaceOnUse">
<stop stop-color="#BADA00"/>
<stop offset="0.2269" stop-color="#B0CE00"/>
<stop offset="0.6378" stop-color="#95AE00"/>
<stop offset="0.974114" stop-color="#798C00"/>
</linearGradient>
<linearGradient id="paint7_linear" x1="46.5037" y1="30.0588" x2="48.1123" y2="31.6673" gradientUnits="userSpaceOnUse">
<stop stop-color="#BADA00"/>
<stop offset="0.2269" stop-color="#B0CE00"/>
<stop offset="0.6378" stop-color="#95AE00"/>
<stop offset="1" stop-color="#798C00"/>
</linearGradient>
<linearGradient id="paint8_linear" x1="45.1362" y1="36.1955" x2="51.317" y2="35.6541" gradientUnits="userSpaceOnUse">
<stop stop-color="#798C00" stop-opacity="0"/>
<stop offset="0.6542" stop-color="#556100" stop-opacity="0.654"/>
<stop offset="1" stop-color="#464F00"/>
</linearGradient>
<linearGradient id="paint9_linear" x1="56.6152" y1="23.3387" x2="57.0858" y2="25.3855" gradientUnits="userSpaceOnUse">
<stop stop-color="#FF6359"/>
<stop offset="0.2243" stop-color="#FE5B50"/>
<stop offset="0.5952" stop-color="#FC4637"/>
<stop offset="1" stop-color="#F82814"/>
</linearGradient>
<linearGradient id="paint10_linear" x1="44.5752" y1="33.0473" x2="45.2702" y2="36.0702" gradientUnits="userSpaceOnUse">
<stop stop-color="#FF6359"/>
<stop offset="0.2243" stop-color="#FE5B50"/>
<stop offset="0.5952" stop-color="#FC4637"/>
<stop offset="1" stop-color="#F82814"/>
</linearGradient>
<linearGradient id="paint11_linear" x1="40.9813" y1="41.1271" x2="42.259" y2="44.856" gradientUnits="userSpaceOnUse">
<stop stop-color="#FFDECF"/>
<stop offset="0.3791" stop-color="#FDC4B0"/>
<stop offset="0.7655" stop-color="#FBAE97"/>
<stop offset="1" stop-color="#FAA68E"/>
</linearGradient>
<linearGradient id="paint12_linear" x1="42.6833" y1="46.1789" x2="41.6205" y2="43.0772" gradientUnits="userSpaceOnUse">
<stop stop-color="#FFDECF"/>
<stop offset="0.3791" stop-color="#FDC4B0"/>
<stop offset="0.7655" stop-color="#FBAE97"/>
<stop offset="1" stop-color="#FAA68E"/>
</linearGradient>
<linearGradient id="paint13_linear" x1="47.9148" y1="27.6439" x2="49.3296" y2="31.7726" gradientUnits="userSpaceOnUse">
<stop stop-color="#FFDECF"/>
<stop offset="0.3791" stop-color="#FDC4B0"/>
<stop offset="0.7655" stop-color="#FBAE97"/>
<stop offset="1" stop-color="#FAA68E"/>
</linearGradient>
<linearGradient id="paint14_linear" x1="49.7993" y1="33.2375" x2="48.6225" y2="29.8031" gradientUnits="userSpaceOnUse">
<stop stop-color="#FFDECF"/>
<stop offset="0.3791" stop-color="#FDC4B0"/>
<stop offset="0.7655" stop-color="#FBAE97"/>
<stop offset="1" stop-color="#FAA68E"/>
</linearGradient>
<linearGradient id="paint15_linear" x1="48.1189" y1="31.3329" x2="51.3686" y2="34.2976" gradientUnits="userSpaceOnUse">
<stop stop-color="#A57C52"/>
<stop offset="0.1339" stop-color="#A26C4A"/>
<stop offset="0.5155" stop-color="#994336"/>
<stop offset="0.8174" stop-color="#942A2A"/>
<stop offset="1" stop-color="#922125"/>
</linearGradient>
<linearGradient id="paint16_linear" x1="56.367" y1="24.8815" x2="55.6062" y2="29.1943" gradientUnits="userSpaceOnUse">
<stop stop-color="#FFD945"/>
<stop offset="0.3043" stop-color="#FFCD3E"/>
<stop offset="0.8558" stop-color="#FFAD2B"/>
<stop offset="1" stop-color="#FFA325"/>
</linearGradient>
<linearGradient id="paint17_linear" x1="48.6218" y1="32.5266" x2="50.7263" y2="34.1874" gradientUnits="userSpaceOnUse">
<stop stop-color="#BADA00"/>
<stop offset="0.2269" stop-color="#B0CE00"/>
<stop offset="0.6378" stop-color="#95AE00"/>
<stop offset="1" stop-color="#798C00"/>
</linearGradient>
<linearGradient id="paint18_linear" x1="60.0473" y1="34.5602" x2="41.7435" y2="42.7488" gradientUnits="userSpaceOnUse">
<stop stop-color="#FFD945"/>
<stop offset="0.203125" stop-color="#FFCD3E"/>
<stop offset="0.672889" stop-color="#FF912B"/>
<stop offset="1" stop-color="#EA4F1E"/>
</linearGradient>
<linearGradient id="paint19_linear" x1="54.9637" y1="41.12" x2="54.9637" y2="52.5889" gradientUnits="userSpaceOnUse">
<stop stop-color="#F88114" stop-opacity="0"/>
<stop offset="1" stop-color="#C0272D"/>
</linearGradient>
<linearGradient id="paint20_linear" x1="60.072" y1="29.6442" x2="59.8836" y2="26.9515" gradientUnits="userSpaceOnUse">
<stop stop-color="#F82814" stop-opacity="0"/>
<stop offset="0.2454" stop-color="#F12817" stop-opacity="0.245"/>
<stop offset="0.6052" stop-color="#DD2820" stop-opacity="0.605"/>
<stop offset="1" stop-color="#C0272D"/>
</linearGradient>
<linearGradient id="paint21_linear" x1="61.7889" y1="30.0132" x2="61.6402" y2="27.8875" gradientUnits="userSpaceOnUse">
<stop stop-color="#F82814" stop-opacity="0"/>
<stop offset="0.2454" stop-color="#F12817" stop-opacity="0.245"/>
<stop offset="0.6052" stop-color="#DD2820" stop-opacity="0.605"/>
<stop offset="1" stop-color="#C0272D"/>
</linearGradient>
<linearGradient id="paint22_linear" x1="60.421" y1="31.2161" x2="60.3314" y2="29.9346" gradientUnits="userSpaceOnUse">
<stop stop-color="#F82814" stop-opacity="0"/>
<stop offset="0.2454" stop-color="#F12817" stop-opacity="0.245"/>
<stop offset="0.6052" stop-color="#DD2820" stop-opacity="0.605"/>
<stop offset="1" stop-color="#C0272D"/>
</linearGradient>
<linearGradient id="paint23_linear" x1="62.9446" y1="45.0198" x2="65.5066" y2="44.1679" gradientUnits="userSpaceOnUse">
<stop stop-color="#F82814" stop-opacity="0"/>
<stop offset="0.2454" stop-color="#F12817" stop-opacity="0.245"/>
<stop offset="0.6052" stop-color="#DD2820" stop-opacity="0.605"/>
<stop offset="1" stop-color="#C0272D"/>
</linearGradient>
<linearGradient id="paint24_linear" x1="63.0141" y1="46.775" x2="65.0367" y2="46.1024" gradientUnits="userSpaceOnUse">
<stop stop-color="#F82814" stop-opacity="0"/>
<stop offset="0.2454" stop-color="#F12817" stop-opacity="0.245"/>
<stop offset="0.6052" stop-color="#DD2820" stop-opacity="0.605"/>
<stop offset="1" stop-color="#C0272D"/>
</linearGradient>
<linearGradient id="paint25_linear" x1="61.5086" y1="45.7487" x2="62.7279" y2="45.3433" gradientUnits="userSpaceOnUse">
<stop stop-color="#F82814" stop-opacity="0"/>
<stop offset="0.2454" stop-color="#F12817" stop-opacity="0.245"/>
<stop offset="0.6052" stop-color="#DD2820" stop-opacity="0.605"/>
<stop offset="1" stop-color="#C0272D"/>
</linearGradient>
<linearGradient id="paint26_linear" x1="58.3202" y1="31.3328" x2="56.7446" y2="30.1101" gradientUnits="userSpaceOnUse">
<stop stop-color="#F82814" stop-opacity="0"/>
<stop offset="0.2454" stop-color="#F12817" stop-opacity="0.245"/>
<stop offset="0.6052" stop-color="#DD2820" stop-opacity="0.605"/>
<stop offset="1" stop-color="#C0272D"/>
</linearGradient>
<linearGradient id="paint27_linear" x1="59.3685" y1="30.5687" x2="58.1246" y2="29.6035" gradientUnits="userSpaceOnUse">
<stop stop-color="#F82814" stop-opacity="0"/>
<stop offset="0.2454" stop-color="#F12817" stop-opacity="0.245"/>
<stop offset="0.6052" stop-color="#DD2820" stop-opacity="0.605"/>
<stop offset="1" stop-color="#C0272D"/>
</linearGradient>
<linearGradient id="paint28_linear" x1="59.3577" y1="31.9145" x2="58.6078" y2="31.3326" gradientUnits="userSpaceOnUse">
<stop stop-color="#F82814" stop-opacity="0"/>
<stop offset="0.2454" stop-color="#F12817" stop-opacity="0.245"/>
<stop offset="0.6052" stop-color="#DD2820" stop-opacity="0.605"/>
<stop offset="1" stop-color="#C0272D"/>
</linearGradient>
<linearGradient id="paint29_linear" x1="48.6542" y1="46.2979" x2="47.0785" y2="45.0752" gradientUnits="userSpaceOnUse">
<stop stop-color="#F82814" stop-opacity="0"/>
<stop offset="0.2454" stop-color="#F12817" stop-opacity="0.245"/>
<stop offset="0.6052" stop-color="#DD2820" stop-opacity="0.605"/>
<stop offset="1" stop-color="#C0272D"/>
</linearGradient>
<linearGradient id="paint30_linear" x1="49.7025" y1="45.5341" x2="48.4586" y2="44.5689" gradientUnits="userSpaceOnUse">
<stop stop-color="#F82814" stop-opacity="0"/>
<stop offset="0.2454" stop-color="#F12817" stop-opacity="0.245"/>
<stop offset="0.6052" stop-color="#DD2820" stop-opacity="0.605"/>
<stop offset="1" stop-color="#C0272D"/>
</linearGradient>
<linearGradient id="paint31_linear" x1="49.6917" y1="46.88" x2="48.9418" y2="46.298" gradientUnits="userSpaceOnUse">
<stop stop-color="#F82814" stop-opacity="0"/>
<stop offset="0.2454" stop-color="#F12817" stop-opacity="0.245"/>
<stop offset="0.6052" stop-color="#DD2820" stop-opacity="0.605"/>
<stop offset="1" stop-color="#C0272D"/>
</linearGradient>
<linearGradient id="paint32_linear" x1="26.5509" y1="31.5971" x2="39.2448" y2="56.2205" gradientUnits="userSpaceOnUse">
<stop stop-color="#FFD945"/>
<stop offset="0.3043" stop-color="#FFCD3E"/>
<stop offset="0.8558" stop-color="#FFAD2B"/>
<stop offset="1" stop-color="#FFA325"/>
</linearGradient>
<linearGradient id="paint33_linear" x1="25.7219" y1="31.5971" x2="38.4158" y2="56.2205" gradientUnits="userSpaceOnUse">
<stop stop-color="#FFD945"/>
<stop offset="0.3043" stop-color="#FFCD3E"/>
<stop offset="0.8558" stop-color="#FFAD2B"/>
<stop offset="1" stop-color="#FFA325"/>
</linearGradient>
<linearGradient id="paint34_linear" x1="34.7442" y1="37.6423" x2="41.8319" y2="34.1606" gradientUnits="userSpaceOnUse">
<stop stop-color="#E85122"/>
<stop offset="1" stop-color="#FF8053" stop-opacity="0"/>
</linearGradient>
<linearGradient id="paint35_linear" x1="20.3303" y1="31.597" x2="33.0242" y2="56.2203" gradientUnits="userSpaceOnUse">
<stop stop-color="#FFD945"/>
<stop offset="0.3043" stop-color="#FFCD3E"/>
<stop offset="0.8558" stop-color="#FFAD2B"/>
<stop offset="1" stop-color="#FFA325"/>
</linearGradient>
<radialGradient id="paint36_radial" cx="0" cy="0" r="1" gradientUnits="userSpaceOnUse" gradientTransform="translate(45.8938 33.2071) rotate(161.888) scale(30.265)">
<stop stop-color="#F82814" stop-opacity="0"/>
<stop offset="0.2918" stop-color="#EC2819" stop-opacity="0.292"/>
<stop offset="0.8165" stop-color="#CD2727" stop-opacity="0.817"/>
<stop offset="1" stop-color="#C0272D"/>
</radialGradient>
<linearGradient id="paint37_linear" x1="33.0704" y1="36.7229" x2="30.2398" y2="39.5535" gradientUnits="userSpaceOnUse">
<stop stop-color="#F82814" stop-opacity="0"/>
<stop offset="0.2918" stop-color="#EC2819" stop-opacity="0.292"/>
<stop offset="0.8165" stop-color="#CD2727" stop-opacity="0.817"/>
<stop offset="1" stop-color="#C0272D"/>
</linearGradient>
<linearGradient id="paint38_linear" x1="46.8885" y1="44.4398" x2="41.5691" y2="46.6155" gradientUnits="userSpaceOnUse">
<stop stop-color="#BADA00"/>
<stop offset="0.2269" stop-color="#B0CE00"/>
<stop offset="0.6378" stop-color="#95AE00"/>
<stop offset="0.974114" stop-color="#798C00"/>
</linearGradient>
<linearGradient id="paint39_linear" x1="37.8576" y1="30.8214" x2="36.04" y2="32.639" gradientUnits="userSpaceOnUse">
<stop stop-color="#BADA00"/>
<stop offset="0.2269" stop-color="#B0CE00"/>
<stop offset="0.6378" stop-color="#95AE00"/>
<stop offset="1" stop-color="#798C00"/>
</linearGradient>
<linearGradient id="paint40_linear" x1="39.403" y1="37.7557" x2="32.4187" y2="37.1439" gradientUnits="userSpaceOnUse">
<stop stop-color="#798C00" stop-opacity="0"/>
<stop offset="0.6542" stop-color="#556100" stop-opacity="0.654"/>
<stop offset="1" stop-color="#464F00"/>
</linearGradient>
<linearGradient id="paint41_linear" x1="26.4317" y1="23.2277" x2="25.9" y2="25.5406" gradientUnits="userSpaceOnUse">
<stop stop-color="#FF6359"/>
<stop offset="0.2243" stop-color="#FE5B50"/>
<stop offset="0.5952" stop-color="#FC4637"/>
<stop offset="1" stop-color="#F82814"/>
</linearGradient>
<linearGradient id="paint42_linear" x1="36.2965" y1="28.9477" x2="35.7648" y2="31.2606" gradientUnits="userSpaceOnUse">
<stop stop-color="#FF6359"/>
<stop offset="0.2243" stop-color="#FE5B50"/>
<stop offset="0.5952" stop-color="#FC4637"/>
<stop offset="1" stop-color="#F82814"/>
</linearGradient>
<linearGradient id="paint43_linear" x1="43.1297" y1="44.3756" x2="42.3552" y2="47.7443" gradientUnits="userSpaceOnUse">
<stop stop-color="#FF6359"/>
<stop offset="0.2243" stop-color="#FE5B50"/>
<stop offset="0.5952" stop-color="#FC4637"/>
<stop offset="1" stop-color="#F82814"/>
</linearGradient>
<linearGradient id="paint44_linear" x1="40.1913" y1="33.5266" x2="39.1717" y2="37.9618" gradientUnits="userSpaceOnUse">
<stop stop-color="#FF6359"/>
<stop offset="0.2243" stop-color="#FE5B50"/>
<stop offset="0.5952" stop-color="#FC4637"/>
<stop offset="1" stop-color="#F82814"/>
</linearGradient>
<linearGradient id="paint45_linear" x1="43.0096" y1="37.6651" x2="41.411" y2="42.3305" gradientUnits="userSpaceOnUse">
<stop stop-color="#FFDECF"/>
<stop offset="0.3791" stop-color="#FDC4B0"/>
<stop offset="0.7655" stop-color="#FBAE97"/>
<stop offset="1" stop-color="#FAA68E"/>
</linearGradient>
<linearGradient id="paint46_linear" x1="40.8802" y1="43.9858" x2="42.2099" y2="40.105" gradientUnits="userSpaceOnUse">
<stop stop-color="#FFDECF"/>
<stop offset="0.3791" stop-color="#FDC4B0"/>
<stop offset="0.7655" stop-color="#FBAE97"/>
<stop offset="1" stop-color="#FAA68E"/>
</linearGradient>
<linearGradient id="paint47_linear" x1="32.7446" y1="25.8866" x2="31.146" y2="30.552" gradientUnits="userSpaceOnUse">
<stop stop-color="#FFDECF"/>
<stop offset="0.3791" stop-color="#FDC4B0"/>
<stop offset="0.7655" stop-color="#FBAE97"/>
<stop offset="1" stop-color="#FAA68E"/>
</linearGradient>
<linearGradient id="paint48_linear" x1="30.6151" y1="32.2073" x2="31.9449" y2="28.3265" gradientUnits="userSpaceOnUse">
<stop stop-color="#FFDECF"/>
<stop offset="0.3791" stop-color="#FDC4B0"/>
<stop offset="0.7655" stop-color="#FBAE97"/>
<stop offset="1" stop-color="#FAA68E"/>
</linearGradient>
<linearGradient id="paint49_linear" x1="36.0324" y1="32.261" x2="32.3603" y2="35.611" gradientUnits="userSpaceOnUse">
<stop stop-color="#A57C52"/>
<stop offset="0.1339" stop-color="#A26C4A"/>
<stop offset="0.5155" stop-color="#994336"/>
<stop offset="0.8174" stop-color="#942A2A"/>
<stop offset="1" stop-color="#922125"/>
</linearGradient>
<linearGradient id="paint50_linear" x1="26.7122" y1="24.9708" x2="27.5719" y2="29.8443" gradientUnits="userSpaceOnUse">
<stop stop-color="#FFD945"/>
<stop offset="0.3043" stop-color="#FFCD3E"/>
<stop offset="0.8558" stop-color="#FFAD2B"/>
<stop offset="1" stop-color="#FFA325"/>
</linearGradient>
<linearGradient id="paint51_linear" x1="35.4642" y1="33.61" x2="33.0862" y2="35.4867" gradientUnits="userSpaceOnUse">
<stop stop-color="#BADA00"/>
<stop offset="0.2269" stop-color="#B0CE00"/>
<stop offset="0.6378" stop-color="#95AE00"/>
<stop offset="1" stop-color="#798C00"/>
</linearGradient>
<linearGradient id="paint52_linear" x1="18.6782" y1="31.597" x2="31.3722" y2="56.2203" gradientUnits="userSpaceOnUse">
<stop stop-color="#FFD945"/>
<stop offset="0.3043" stop-color="#FFCD3E"/>
<stop offset="0.8558" stop-color="#FFAD2B"/>
<stop offset="1" stop-color="#FFA325"/>
</linearGradient>
<linearGradient id="paint53_linear" x1="28.298" y1="43.3207" x2="28.298" y2="56.2804" gradientUnits="userSpaceOnUse">
<stop stop-color="#F88114" stop-opacity="0"/>
<stop offset="1" stop-color="#C0272D"/>
</linearGradient>
<linearGradient id="paint54_linear" x1="22.5256" y1="30.3531" x2="22.7386" y2="27.3104" gradientUnits="userSpaceOnUse">
<stop stop-color="#F82814" stop-opacity="0"/>
<stop offset="0.2454" stop-color="#F12817" stop-opacity="0.245"/>
<stop offset="0.6052" stop-color="#DD2820" stop-opacity="0.605"/>
<stop offset="1" stop-color="#C0272D"/>
</linearGradient>
<linearGradient id="paint55_linear" x1="20.5854" y1="30.7697" x2="20.7535" y2="28.3677" gradientUnits="userSpaceOnUse">
<stop stop-color="#F82814" stop-opacity="0"/>
<stop offset="0.2454" stop-color="#F12817" stop-opacity="0.245"/>
<stop offset="0.6052" stop-color="#DD2820" stop-opacity="0.605"/>
<stop offset="1" stop-color="#C0272D"/>
</linearGradient>
<linearGradient id="paint56_linear" x1="22.1313" y1="32.1291" x2="22.2325" y2="30.681" gradientUnits="userSpaceOnUse">
<stop stop-color="#F82814" stop-opacity="0"/>
<stop offset="0.2454" stop-color="#F12817" stop-opacity="0.245"/>
<stop offset="0.6052" stop-color="#DD2820" stop-opacity="0.605"/>
<stop offset="1" stop-color="#C0272D"/>
</linearGradient>
<linearGradient id="paint57_linear" x1="19.2796" y1="47.7274" x2="16.3845" y2="46.7647" gradientUnits="userSpaceOnUse">
<stop stop-color="#F82814" stop-opacity="0"/>
<stop offset="0.2454" stop-color="#F12817" stop-opacity="0.245"/>
<stop offset="0.6052" stop-color="#DD2820" stop-opacity="0.605"/>
<stop offset="1" stop-color="#C0272D"/>
</linearGradient>
<linearGradient id="paint58_linear" x1="19.2011" y1="49.7106" x2="16.9155" y2="48.9507" gradientUnits="userSpaceOnUse">
<stop stop-color="#F82814" stop-opacity="0"/>
<stop offset="0.2454" stop-color="#F12817" stop-opacity="0.245"/>
<stop offset="0.6052" stop-color="#DD2820" stop-opacity="0.605"/>
<stop offset="1" stop-color="#C0272D"/>
</linearGradient>
<linearGradient id="paint59_linear" x1="20.9023" y1="48.551" x2="19.5244" y2="48.0928" gradientUnits="userSpaceOnUse">
<stop stop-color="#F82814" stop-opacity="0"/>
<stop offset="0.2454" stop-color="#F12817" stop-opacity="0.245"/>
<stop offset="0.6052" stop-color="#DD2820" stop-opacity="0.605"/>
<stop offset="1" stop-color="#C0272D"/>
</linearGradient>
<linearGradient id="paint60_linear" x1="24.505" y1="32.2611" x2="26.2855" y2="30.8795" gradientUnits="userSpaceOnUse">
<stop stop-color="#F82814" stop-opacity="0"/>
<stop offset="0.2454" stop-color="#F12817" stop-opacity="0.245"/>
<stop offset="0.6052" stop-color="#DD2820" stop-opacity="0.605"/>
<stop offset="1" stop-color="#C0272D"/>
</linearGradient>
<linearGradient id="paint61_linear" x1="23.3198" y1="31.3979" x2="24.7254" y2="30.3072" gradientUnits="userSpaceOnUse">
<stop stop-color="#F82814" stop-opacity="0"/>
<stop offset="0.2454" stop-color="#F12817" stop-opacity="0.245"/>
<stop offset="0.6052" stop-color="#DD2820" stop-opacity="0.605"/>
<stop offset="1" stop-color="#C0272D"/>
</linearGradient>
<linearGradient id="paint62_linear" x1="23.3326" y1="32.9186" x2="24.18" y2="32.261" gradientUnits="userSpaceOnUse">
<stop stop-color="#F82814" stop-opacity="0"/>
<stop offset="0.2454" stop-color="#F12817" stop-opacity="0.245"/>
<stop offset="0.6052" stop-color="#DD2820" stop-opacity="0.605"/>
<stop offset="1" stop-color="#C0272D"/>
</linearGradient>
<linearGradient id="paint63_linear" x1="35.4277" y1="49.1714" x2="37.2081" y2="47.7898" gradientUnits="userSpaceOnUse">
<stop stop-color="#F82814" stop-opacity="0"/>
<stop offset="0.2454" stop-color="#F12817" stop-opacity="0.245"/>
<stop offset="0.6052" stop-color="#DD2820" stop-opacity="0.605"/>
<stop offset="1" stop-color="#C0272D"/>
</linearGradient>
<linearGradient id="paint64_linear" x1="34.2425" y1="48.3082" x2="35.648" y2="47.2175" gradientUnits="userSpaceOnUse">
<stop stop-color="#F82814" stop-opacity="0"/>
<stop offset="0.2454" stop-color="#F12817" stop-opacity="0.245"/>
<stop offset="0.6052" stop-color="#DD2820" stop-opacity="0.605"/>
<stop offset="1" stop-color="#C0272D"/>
</linearGradient>
<linearGradient id="paint65_linear" x1="34.2553" y1="49.8291" x2="35.1027" y2="49.1715" gradientUnits="userSpaceOnUse">
<stop stop-color="#F82814" stop-opacity="0"/>
<stop offset="0.2454" stop-color="#F12817" stop-opacity="0.245"/>
<stop offset="0.6052" stop-color="#DD2820" stop-opacity="0.605"/>
<stop offset="1" stop-color="#C0272D"/>
</linearGradient>
</defs>
</svg>
